G04 #@! TF.GenerationSoftware,KiCad,Pcbnew,(5.1.4)-1*
G04 #@! TF.CreationDate,2020-09-22T12:22:12+09:00*
G04 #@! TF.ProjectId,K65-IOB,4b36352d-494f-4422-9e6b-696361645f70,rev?*
G04 #@! TF.SameCoordinates,Original*
G04 #@! TF.FileFunction,Copper,L1,Top*
G04 #@! TF.FilePolarity,Positive*
%FSLAX46Y46*%
G04 Gerber Fmt 4.6, Leading zero omitted, Abs format (unit mm)*
G04 Created by KiCad (PCBNEW (5.1.4)-1) date 2020-09-22 12:22:12*
%MOMM*%
%LPD*%
G04 APERTURE LIST*
%ADD10O,1.600000X1.600000*%
%ADD11R,1.600000X1.600000*%
%ADD12C,1.500000*%
%ADD13O,1.400000X1.400000*%
%ADD14C,1.400000*%
%ADD15O,1.700000X1.700000*%
%ADD16R,1.700000X1.700000*%
%ADD17C,1.600000*%
%ADD18C,0.800000*%
%ADD19C,0.600000*%
%ADD20C,0.250000*%
%ADD21C,0.254000*%
G04 APERTURE END LIST*
D10*
X117145000Y-78715000D03*
X101905000Y-126975000D03*
X117145000Y-81255000D03*
X101905000Y-124435000D03*
X117145000Y-83795000D03*
X101905000Y-121895000D03*
X117145000Y-86335000D03*
X101905000Y-119355000D03*
X117145000Y-88875000D03*
X101905000Y-116815000D03*
X117145000Y-91415000D03*
X101905000Y-114275000D03*
X117145000Y-93955000D03*
X101905000Y-111735000D03*
X117145000Y-96495000D03*
X101905000Y-109195000D03*
X117145000Y-99035000D03*
X101905000Y-106655000D03*
X117145000Y-101575000D03*
X101905000Y-104115000D03*
X117145000Y-104115000D03*
X101905000Y-101575000D03*
X117145000Y-106655000D03*
X101905000Y-99035000D03*
X117145000Y-109195000D03*
X101905000Y-96495000D03*
X117145000Y-111735000D03*
X101905000Y-93955000D03*
X117145000Y-114275000D03*
X101905000Y-91415000D03*
X117145000Y-116815000D03*
X101905000Y-88875000D03*
X117145000Y-119355000D03*
X101905000Y-86335000D03*
X117145000Y-121895000D03*
X101905000Y-83795000D03*
X117145000Y-124435000D03*
X101905000Y-81255000D03*
X117145000Y-126975000D03*
D11*
X101905000Y-78715000D03*
D12*
X142785000Y-113215000D03*
X137905000Y-113215000D03*
D10*
X164145000Y-82215000D03*
X148905000Y-115235000D03*
X164145000Y-84755000D03*
X148905000Y-112695000D03*
X164145000Y-87295000D03*
X148905000Y-110155000D03*
X164145000Y-89835000D03*
X148905000Y-107615000D03*
X164145000Y-92375000D03*
X148905000Y-105075000D03*
X164145000Y-94915000D03*
X148905000Y-102535000D03*
X164145000Y-97455000D03*
X148905000Y-99995000D03*
X164145000Y-99995000D03*
X148905000Y-97455000D03*
X164145000Y-102535000D03*
X148905000Y-94915000D03*
X164145000Y-105075000D03*
X148905000Y-92375000D03*
X164145000Y-107615000D03*
X148905000Y-89835000D03*
X164145000Y-110155000D03*
X148905000Y-87295000D03*
X164145000Y-112695000D03*
X148905000Y-84755000D03*
X164145000Y-115235000D03*
D11*
X148905000Y-82215000D03*
D10*
X135525000Y-82215000D03*
X127905000Y-99995000D03*
X135525000Y-84755000D03*
X127905000Y-97455000D03*
X135525000Y-87295000D03*
X127905000Y-94915000D03*
X135525000Y-89835000D03*
X127905000Y-92375000D03*
X135525000Y-92375000D03*
X127905000Y-89835000D03*
X135525000Y-94915000D03*
X127905000Y-87295000D03*
X135525000Y-97455000D03*
X127905000Y-84755000D03*
X135525000Y-99995000D03*
D11*
X127905000Y-82215000D03*
D13*
X144025000Y-106715000D03*
D14*
X136405000Y-106715000D03*
D15*
X89040000Y-120240000D03*
X86500000Y-120240000D03*
X89040000Y-117700000D03*
X86500000Y-117700000D03*
X89040000Y-115160000D03*
X86500000Y-115160000D03*
X89040000Y-112620000D03*
X86500000Y-112620000D03*
X89040000Y-110080000D03*
X86500000Y-110080000D03*
X89040000Y-107540000D03*
X86500000Y-107540000D03*
X89040000Y-105000000D03*
D16*
X86500000Y-105000000D03*
D15*
X89040000Y-91240000D03*
X86500000Y-91240000D03*
X89040000Y-88700000D03*
X86500000Y-88700000D03*
X89040000Y-86160000D03*
X86500000Y-86160000D03*
X89040000Y-83620000D03*
X86500000Y-83620000D03*
X89040000Y-81080000D03*
X86500000Y-81080000D03*
X89040000Y-78540000D03*
X86500000Y-78540000D03*
X89040000Y-76000000D03*
D16*
X86500000Y-76000000D03*
D15*
X148705000Y-126215000D03*
X151245000Y-126215000D03*
X153785000Y-126215000D03*
X156325000Y-126215000D03*
X158865000Y-126215000D03*
D16*
X161405000Y-126215000D03*
D15*
X153660000Y-68960000D03*
X153660000Y-71500000D03*
X151120000Y-68960000D03*
X151120000Y-71500000D03*
X148580000Y-68960000D03*
X148580000Y-71500000D03*
X146040000Y-68960000D03*
X146040000Y-71500000D03*
X143500000Y-68960000D03*
X143500000Y-71500000D03*
X140960000Y-68960000D03*
X140960000Y-71500000D03*
X138420000Y-68960000D03*
X138420000Y-71500000D03*
X135880000Y-68960000D03*
X135880000Y-71500000D03*
X133340000Y-68960000D03*
X133340000Y-71500000D03*
X130800000Y-68960000D03*
X130800000Y-71500000D03*
X128260000Y-68960000D03*
X128260000Y-71500000D03*
X125720000Y-68960000D03*
X125720000Y-71500000D03*
X123180000Y-68960000D03*
X123180000Y-71500000D03*
X120640000Y-68960000D03*
X120640000Y-71500000D03*
X118100000Y-68960000D03*
X118100000Y-71500000D03*
X115560000Y-68960000D03*
X115560000Y-71500000D03*
X113020000Y-68960000D03*
X113020000Y-71500000D03*
X110480000Y-68960000D03*
X110480000Y-71500000D03*
X107940000Y-68960000D03*
X107940000Y-71500000D03*
X105400000Y-68960000D03*
D16*
X105400000Y-71500000D03*
D17*
X101405000Y-130215000D03*
X103905000Y-130215000D03*
X167405000Y-115215000D03*
X167405000Y-112715000D03*
X135405000Y-118215000D03*
X137905000Y-118215000D03*
X135905000Y-79215000D03*
X133405000Y-79215000D03*
D18*
X125139300Y-116535300D03*
X106000000Y-109000000D03*
X108500000Y-120500000D03*
X119931900Y-88565000D03*
X119215700Y-100487300D03*
X128832600Y-110225800D03*
X137938300Y-91264500D03*
D19*
X125139300Y-116535300D02*
X125139300Y-120870700D01*
X125139300Y-120870700D02*
X117734700Y-128275300D01*
X117734700Y-128275300D02*
X104505600Y-128275300D01*
X104505600Y-128275300D02*
X103205300Y-126975000D01*
X162844700Y-115235000D02*
X161544400Y-116535300D01*
X161544400Y-116535300D02*
X125139300Y-116535300D01*
X86500000Y-91240000D02*
X86500000Y-92590300D01*
X86500000Y-120240000D02*
X85149600Y-118889600D01*
X85149600Y-118889600D02*
X85149600Y-93940700D01*
X85149600Y-93940700D02*
X86500000Y-92590300D01*
X101905000Y-126975000D02*
X103205300Y-126975000D01*
X164145000Y-115235000D02*
X162844700Y-115235000D01*
X153660000Y-71500000D02*
X145945000Y-79215000D01*
X145945000Y-79215000D02*
X135905000Y-79215000D01*
X164145000Y-115235000D02*
X165445300Y-115235000D01*
X167405000Y-115215000D02*
X165465300Y-115215000D01*
X165465300Y-115215000D02*
X165445300Y-115235000D01*
X127905000Y-92375000D02*
X126601800Y-93678200D01*
X126601800Y-93678200D02*
X126601800Y-98691800D01*
X126601800Y-98691800D02*
X127905000Y-99995000D01*
X103905000Y-130215000D02*
X102604600Y-128914600D01*
X102604600Y-128914600D02*
X99064900Y-128914600D01*
X99064900Y-128914600D02*
X90390300Y-120240000D01*
X103905000Y-130215000D02*
X123405000Y-130215000D01*
X123405000Y-130215000D02*
X135405000Y-118215000D01*
X89040000Y-120240000D02*
X90390300Y-120240000D01*
X133405000Y-79215000D02*
X135104700Y-80914700D01*
X135104700Y-80914700D02*
X146304400Y-80914700D01*
X146304400Y-80914700D02*
X147604700Y-82215000D01*
X161405000Y-126215000D02*
X158734600Y-123544600D01*
X158734600Y-123544600D02*
X140734600Y-123544600D01*
X140734600Y-123544600D02*
X135405000Y-118215000D01*
X148905000Y-82215000D02*
X147604700Y-82215000D01*
X164145000Y-112695000D02*
X165445300Y-112695000D01*
X167405000Y-112715000D02*
X165465300Y-112715000D01*
X165465300Y-112715000D02*
X165445300Y-112695000D01*
D20*
X147779700Y-89835000D02*
X138342100Y-89835000D01*
X138342100Y-89835000D02*
X137216800Y-90960300D01*
X137216800Y-90960300D02*
X121265000Y-90960300D01*
X121265000Y-90960300D02*
X118270300Y-93955000D01*
X148905000Y-89835000D02*
X147779700Y-89835000D01*
X117145000Y-93955000D02*
X118270300Y-93955000D01*
X164145000Y-87295000D02*
X164145000Y-86169700D01*
X140960000Y-71500000D02*
X142135300Y-71500000D01*
X142135300Y-71500000D02*
X142135300Y-71132600D01*
X142135300Y-71132600D02*
X142943200Y-70324700D01*
X142943200Y-70324700D02*
X146339500Y-70324700D01*
X146339500Y-70324700D02*
X147310000Y-69354200D01*
X147310000Y-69354200D02*
X147310000Y-68547500D01*
X147310000Y-68547500D02*
X148072900Y-67784600D01*
X148072900Y-67784600D02*
X154181900Y-67784600D01*
X154181900Y-67784600D02*
X165270300Y-78873000D01*
X165270300Y-78873000D02*
X165270300Y-85325800D01*
X165270300Y-85325800D02*
X164426400Y-86169700D01*
X164426400Y-86169700D02*
X164145000Y-86169700D01*
X138420000Y-71500000D02*
X139595300Y-71500000D01*
X139595300Y-71500000D02*
X139595300Y-71867300D01*
X139595300Y-71867300D02*
X140403400Y-72675400D01*
X140403400Y-72675400D02*
X149068800Y-72675400D01*
X149068800Y-72675400D02*
X149850000Y-71894200D01*
X149850000Y-71894200D02*
X149850000Y-71047100D01*
X149850000Y-71047100D02*
X150572400Y-70324700D01*
X150572400Y-70324700D02*
X154192100Y-70324700D01*
X154192100Y-70324700D02*
X164145000Y-80277600D01*
X164145000Y-80277600D02*
X164145000Y-82215000D01*
X123180000Y-68960000D02*
X123180000Y-70135300D01*
X148905000Y-84755000D02*
X147779700Y-84755000D01*
X147779700Y-84755000D02*
X146654400Y-83629700D01*
X146654400Y-83629700D02*
X135298500Y-83629700D01*
X135298500Y-83629700D02*
X124355300Y-72686500D01*
X124355300Y-72686500D02*
X124355300Y-70943200D01*
X124355300Y-70943200D02*
X123547400Y-70135300D01*
X123547400Y-70135300D02*
X123180000Y-70135300D01*
X117145000Y-91415000D02*
X117145000Y-90289700D01*
X120640000Y-68960000D02*
X120640000Y-70135300D01*
X120640000Y-70135300D02*
X121007300Y-70135300D01*
X121007300Y-70135300D02*
X121830400Y-70958400D01*
X121830400Y-70958400D02*
X121830400Y-85598300D01*
X121830400Y-85598300D02*
X118270300Y-89158400D01*
X118270300Y-89158400D02*
X118270300Y-89445800D01*
X118270300Y-89445800D02*
X117426400Y-90289700D01*
X117426400Y-90289700D02*
X117145000Y-90289700D01*
X120640000Y-71500000D02*
X120640000Y-84459000D01*
X120640000Y-84459000D02*
X117349300Y-87749700D01*
X117349300Y-87749700D02*
X117145000Y-87749700D01*
X117145000Y-88875000D02*
X117145000Y-87749700D01*
X148905000Y-115235000D02*
X148905000Y-114109700D01*
X117145000Y-86335000D02*
X115520700Y-87959300D01*
X115520700Y-87959300D02*
X115520700Y-104105800D01*
X115520700Y-104105800D02*
X116703300Y-105288400D01*
X116703300Y-105288400D02*
X141010000Y-105288400D01*
X141010000Y-105288400D02*
X147146600Y-111425000D01*
X147146600Y-111425000D02*
X149226800Y-111425000D01*
X149226800Y-111425000D02*
X150030300Y-112228500D01*
X150030300Y-112228500D02*
X150030300Y-113265800D01*
X150030300Y-113265800D02*
X149186400Y-114109700D01*
X149186400Y-114109700D02*
X148905000Y-114109700D01*
X118100000Y-70135300D02*
X118467300Y-70135300D01*
X118467300Y-70135300D02*
X119278100Y-70946100D01*
X119278100Y-70946100D02*
X119278100Y-84201900D01*
X119278100Y-84201900D02*
X117145000Y-86335000D01*
X118100000Y-68960000D02*
X118100000Y-70135300D01*
X117145000Y-84920300D02*
X116863700Y-84920300D01*
X116863700Y-84920300D02*
X115070300Y-86713700D01*
X115070300Y-86713700D02*
X115070300Y-106204400D01*
X115070300Y-106204400D02*
X116790900Y-107925000D01*
X116790900Y-107925000D02*
X143009700Y-107925000D01*
X143009700Y-107925000D02*
X147779700Y-112695000D01*
X117145000Y-83795000D02*
X117145000Y-84920300D01*
X148905000Y-112695000D02*
X147779700Y-112695000D01*
X117145000Y-83795000D02*
X117145000Y-82669700D01*
X118100000Y-71500000D02*
X118100000Y-72675300D01*
X118100000Y-72675300D02*
X118270300Y-72845600D01*
X118270300Y-72845600D02*
X118270300Y-81825800D01*
X118270300Y-81825800D02*
X117426400Y-82669700D01*
X117426400Y-82669700D02*
X117145000Y-82669700D01*
X164145000Y-88709700D02*
X164426400Y-88709700D01*
X164426400Y-88709700D02*
X165720600Y-87415500D01*
X165720600Y-87415500D02*
X165720600Y-78686400D01*
X165720600Y-78686400D02*
X154368500Y-67334300D01*
X154368500Y-67334300D02*
X117993700Y-67334300D01*
X117993700Y-67334300D02*
X116735300Y-68592700D01*
X116735300Y-68592700D02*
X116735300Y-68960000D01*
X164145000Y-89835000D02*
X164145000Y-88709700D01*
X115560000Y-68960000D02*
X116735300Y-68960000D01*
X164145000Y-91249700D02*
X164426300Y-91249700D01*
X164426300Y-91249700D02*
X166209700Y-89466300D01*
X166209700Y-89466300D02*
X166209700Y-78538600D01*
X166209700Y-78538600D02*
X154555100Y-66884000D01*
X154555100Y-66884000D02*
X115969700Y-66884000D01*
X115969700Y-66884000D02*
X114384700Y-68469000D01*
X114384700Y-68469000D02*
X114384700Y-69516800D01*
X114384700Y-69516800D02*
X115192600Y-70324700D01*
X115192600Y-70324700D02*
X115560000Y-70324700D01*
X115560000Y-71500000D02*
X115560000Y-70324700D01*
X164145000Y-92375000D02*
X164145000Y-91249700D01*
X163019700Y-94915000D02*
X156669700Y-88565000D01*
X156669700Y-88565000D02*
X119931900Y-88565000D01*
X164145000Y-94915000D02*
X163019700Y-94915000D01*
X163019700Y-97455000D02*
X161894400Y-96329700D01*
X161894400Y-96329700D02*
X141223900Y-96329700D01*
X141223900Y-96329700D02*
X136425300Y-101128300D01*
X136425300Y-101128300D02*
X119856700Y-101128300D01*
X119856700Y-101128300D02*
X119215700Y-100487300D01*
X164145000Y-97455000D02*
X163019700Y-97455000D01*
X164145000Y-99995000D02*
X164145000Y-101120300D01*
X117145000Y-104115000D02*
X144542100Y-104115000D01*
X144542100Y-104115000D02*
X146679600Y-106252500D01*
X146679600Y-106252500D02*
X164622700Y-106252500D01*
X164622700Y-106252500D02*
X165270300Y-105604900D01*
X165270300Y-105604900D02*
X165270300Y-101964200D01*
X165270300Y-101964200D02*
X164426400Y-101120300D01*
X164426400Y-101120300D02*
X164145000Y-101120300D01*
X118270300Y-101575000D02*
X118778900Y-102083600D01*
X118778900Y-102083600D02*
X140064000Y-102083600D01*
X140064000Y-102083600D02*
X140737900Y-101409700D01*
X140737900Y-101409700D02*
X161894400Y-101409700D01*
X161894400Y-101409700D02*
X163019700Y-102535000D01*
X164145000Y-102535000D02*
X163019700Y-102535000D01*
X117145000Y-101575000D02*
X118270300Y-101575000D01*
X164145000Y-105075000D02*
X163019700Y-105075000D01*
X117145000Y-99035000D02*
X117145000Y-100160300D01*
X117145000Y-100160300D02*
X116863700Y-100160300D01*
X116863700Y-100160300D02*
X115971100Y-101052900D01*
X115971100Y-101052900D02*
X115971100Y-101992800D01*
X115971100Y-101992800D02*
X116907900Y-102929600D01*
X116907900Y-102929600D02*
X117721800Y-102929600D01*
X117721800Y-102929600D02*
X118452600Y-103660400D01*
X118452600Y-103660400D02*
X161605100Y-103660400D01*
X161605100Y-103660400D02*
X163019700Y-105075000D01*
X117145000Y-96495000D02*
X117145000Y-97620300D01*
X117145000Y-97620300D02*
X117426400Y-97620300D01*
X117426400Y-97620300D02*
X118270300Y-98464200D01*
X118270300Y-98464200D02*
X118270300Y-100583500D01*
X118270300Y-100583500D02*
X119320000Y-101633200D01*
X119320000Y-101633200D02*
X137593100Y-101633200D01*
X137593100Y-101633200D02*
X140358400Y-98867900D01*
X140358400Y-98867900D02*
X164629200Y-98867900D01*
X164629200Y-98867900D02*
X165740300Y-99979000D01*
X165740300Y-99979000D02*
X165740300Y-106019700D01*
X165740300Y-106019700D02*
X164145000Y-107615000D01*
X117145000Y-81255000D02*
X116019700Y-81255000D01*
X89040000Y-88700000D02*
X90215300Y-88700000D01*
X90215300Y-88700000D02*
X91554500Y-90039200D01*
X91554500Y-90039200D02*
X107235500Y-90039200D01*
X107235500Y-90039200D02*
X116019700Y-81255000D01*
X117145000Y-78715000D02*
X116019700Y-78715000D01*
X86500000Y-88700000D02*
X87675300Y-88700000D01*
X87675300Y-88700000D02*
X87675300Y-88332600D01*
X87675300Y-88332600D02*
X88483200Y-87524700D01*
X88483200Y-87524700D02*
X107210000Y-87524700D01*
X107210000Y-87524700D02*
X116019700Y-78715000D01*
X101905000Y-86335000D02*
X100779700Y-86335000D01*
X86500000Y-78540000D02*
X87675300Y-78540000D01*
X87675300Y-78540000D02*
X87675300Y-78907400D01*
X87675300Y-78907400D02*
X88483200Y-79715300D01*
X88483200Y-79715300D02*
X94160000Y-79715300D01*
X94160000Y-79715300D02*
X100779700Y-86335000D01*
X101905000Y-81255000D02*
X100779700Y-81255000D01*
X86500000Y-76000000D02*
X87675300Y-76000000D01*
X87675300Y-76000000D02*
X87675300Y-76367400D01*
X87675300Y-76367400D02*
X88483200Y-77175300D01*
X88483200Y-77175300D02*
X96700000Y-77175300D01*
X96700000Y-77175300D02*
X100779700Y-81255000D01*
X89040000Y-117700000D02*
X94044700Y-117700000D01*
X94044700Y-117700000D02*
X100779700Y-124435000D01*
X101905000Y-124435000D02*
X100779700Y-124435000D01*
X101905000Y-121895000D02*
X100779700Y-121895000D01*
X86500000Y-117700000D02*
X87675300Y-117700000D01*
X87675300Y-117700000D02*
X87675300Y-117332700D01*
X87675300Y-117332700D02*
X88512700Y-116495300D01*
X88512700Y-116495300D02*
X95380000Y-116495300D01*
X95380000Y-116495300D02*
X100779700Y-121895000D01*
X89040000Y-112620000D02*
X94044700Y-112620000D01*
X94044700Y-112620000D02*
X100779700Y-119355000D01*
X101905000Y-119355000D02*
X100779700Y-119355000D01*
X101905000Y-116815000D02*
X100779700Y-116815000D01*
X86500000Y-112620000D02*
X87675300Y-112620000D01*
X87675300Y-112620000D02*
X87675300Y-112252700D01*
X87675300Y-112252700D02*
X88512700Y-111415300D01*
X88512700Y-111415300D02*
X95380000Y-111415300D01*
X95380000Y-111415300D02*
X100779700Y-116815000D01*
X103030300Y-116815000D02*
X104155600Y-115689700D01*
X104155600Y-115689700D02*
X123368700Y-115689700D01*
X123368700Y-115689700D02*
X128832600Y-110225800D01*
X101905000Y-116815000D02*
X103030300Y-116815000D01*
X89040000Y-110080000D02*
X90215300Y-110080000D01*
X90215300Y-110080000D02*
X96584700Y-110080000D01*
X96584700Y-110080000D02*
X100779700Y-114275000D01*
X101905000Y-114275000D02*
X100779700Y-114275000D01*
X101905000Y-111735000D02*
X100779700Y-111735000D01*
X86500000Y-110080000D02*
X87675300Y-110080000D01*
X87675300Y-110080000D02*
X87675300Y-109712700D01*
X87675300Y-109712700D02*
X88492800Y-108895200D01*
X88492800Y-108895200D02*
X97939900Y-108895200D01*
X97939900Y-108895200D02*
X100779700Y-111735000D01*
X101905000Y-109195000D02*
X100779700Y-109195000D01*
X100779700Y-109195000D02*
X99124700Y-107540000D01*
X99124700Y-107540000D02*
X90215300Y-107540000D01*
X89040000Y-107540000D02*
X90215300Y-107540000D01*
X101905000Y-106655000D02*
X100779700Y-106655000D01*
X86500000Y-107540000D02*
X87675300Y-107540000D01*
X87675300Y-107540000D02*
X87675300Y-107172700D01*
X87675300Y-107172700D02*
X88493800Y-106354200D01*
X88493800Y-106354200D02*
X100478900Y-106354200D01*
X100478900Y-106354200D02*
X100779700Y-106655000D01*
X101905000Y-104115000D02*
X100779700Y-104115000D01*
X89040000Y-105000000D02*
X99894700Y-105000000D01*
X99894700Y-105000000D02*
X100779700Y-104115000D01*
X86500000Y-105000000D02*
X87675300Y-105000000D01*
X87675300Y-105000000D02*
X87675300Y-104632700D01*
X87675300Y-104632700D02*
X90733000Y-101575000D01*
X90733000Y-101575000D02*
X101905000Y-101575000D01*
X135525000Y-97455000D02*
X135525000Y-96329700D01*
X137938300Y-91264500D02*
X137938300Y-94197700D01*
X137938300Y-94197700D02*
X135806300Y-96329700D01*
X135806300Y-96329700D02*
X135525000Y-96329700D01*
X148905000Y-107615000D02*
X160479700Y-107615000D01*
X160479700Y-107615000D02*
X163019700Y-110155000D01*
X164145000Y-110155000D02*
X163019700Y-110155000D01*
D21*
G36*
X179340001Y-134340000D02*
G01*
X80660000Y-134340000D01*
X80660000Y-130279872D01*
X83265000Y-130279872D01*
X83265000Y-130720128D01*
X83350890Y-131151925D01*
X83519369Y-131558669D01*
X83763962Y-131924729D01*
X84075271Y-132236038D01*
X84441331Y-132480631D01*
X84848075Y-132649110D01*
X85279872Y-132735000D01*
X85720128Y-132735000D01*
X86151925Y-132649110D01*
X86558669Y-132480631D01*
X86924729Y-132236038D01*
X87236038Y-131924729D01*
X87480631Y-131558669D01*
X87649110Y-131151925D01*
X87735000Y-130720128D01*
X87735000Y-130279872D01*
X87693983Y-130073665D01*
X99970000Y-130073665D01*
X99970000Y-130356335D01*
X100025147Y-130633574D01*
X100133320Y-130894727D01*
X100290363Y-131129759D01*
X100490241Y-131329637D01*
X100725273Y-131486680D01*
X100986426Y-131594853D01*
X101263665Y-131650000D01*
X101546335Y-131650000D01*
X101823574Y-131594853D01*
X102084727Y-131486680D01*
X102319759Y-131329637D01*
X102441694Y-131207702D01*
X103091903Y-131207702D01*
X103163486Y-131451671D01*
X103418996Y-131572571D01*
X103693184Y-131641300D01*
X103975512Y-131655217D01*
X104255130Y-131613787D01*
X104521292Y-131518603D01*
X104646514Y-131451671D01*
X104718097Y-131207702D01*
X103905000Y-130394605D01*
X103091903Y-131207702D01*
X102441694Y-131207702D01*
X102519637Y-131129759D01*
X102653692Y-130929131D01*
X102668329Y-130956514D01*
X102912298Y-131028097D01*
X103725395Y-130215000D01*
X102912298Y-129401903D01*
X102668329Y-129473486D01*
X102654676Y-129502341D01*
X102519637Y-129300241D01*
X102319759Y-129100363D01*
X102084727Y-128943320D01*
X101823574Y-128835147D01*
X101546335Y-128780000D01*
X101263665Y-128780000D01*
X100986426Y-128835147D01*
X100725273Y-128943320D01*
X100490241Y-129100363D01*
X100290363Y-129300241D01*
X100133320Y-129535273D01*
X100025147Y-129796426D01*
X99970000Y-130073665D01*
X87693983Y-130073665D01*
X87649110Y-129848075D01*
X87480631Y-129441331D01*
X87236038Y-129075271D01*
X86924729Y-128763962D01*
X86558669Y-128519369D01*
X86151925Y-128350890D01*
X85720128Y-128265000D01*
X85279872Y-128265000D01*
X84848075Y-128350890D01*
X84441331Y-128519369D01*
X84075271Y-128763962D01*
X83763962Y-129075271D01*
X83519369Y-129441331D01*
X83350890Y-129848075D01*
X83265000Y-130279872D01*
X80660000Y-130279872D01*
X80660000Y-93940700D01*
X84210076Y-93940700D01*
X84214601Y-93986642D01*
X84214600Y-118843668D01*
X84210076Y-118889600D01*
X84214600Y-118935531D01*
X84228129Y-119072891D01*
X84281593Y-119249139D01*
X84368414Y-119411571D01*
X84485256Y-119553944D01*
X84520941Y-119583230D01*
X85023048Y-120085337D01*
X85007815Y-120240000D01*
X85036487Y-120531111D01*
X85121401Y-120811034D01*
X85259294Y-121069014D01*
X85444866Y-121295134D01*
X85670986Y-121480706D01*
X85928966Y-121618599D01*
X86208889Y-121703513D01*
X86427050Y-121725000D01*
X86572950Y-121725000D01*
X86791111Y-121703513D01*
X87071034Y-121618599D01*
X87329014Y-121480706D01*
X87555134Y-121295134D01*
X87740706Y-121069014D01*
X87771584Y-121011244D01*
X87942412Y-121240269D01*
X88158645Y-121435178D01*
X88408748Y-121584157D01*
X88683109Y-121681481D01*
X88913000Y-121560814D01*
X88913000Y-120367000D01*
X89167000Y-120367000D01*
X89167000Y-121560814D01*
X89396891Y-121681481D01*
X89671252Y-121584157D01*
X89921355Y-121435178D01*
X90137588Y-121240269D01*
X90311641Y-121006920D01*
X90436825Y-120744099D01*
X90481476Y-120596890D01*
X90360155Y-120367000D01*
X89167000Y-120367000D01*
X88913000Y-120367000D01*
X88893000Y-120367000D01*
X88893000Y-120113000D01*
X88913000Y-120113000D01*
X88913000Y-120093000D01*
X89167000Y-120093000D01*
X89167000Y-120113000D01*
X90360155Y-120113000D01*
X90481476Y-119883110D01*
X90436825Y-119735901D01*
X90311641Y-119473080D01*
X90137588Y-119239731D01*
X89921355Y-119044822D01*
X89804477Y-118975201D01*
X89869014Y-118940706D01*
X90095134Y-118755134D01*
X90280706Y-118529014D01*
X90317595Y-118460000D01*
X93729899Y-118460000D01*
X100215901Y-124946003D01*
X100239699Y-124975001D01*
X100355424Y-125069974D01*
X100487453Y-125140546D01*
X100630714Y-125184003D01*
X100680861Y-125188942D01*
X100706068Y-125236101D01*
X100885392Y-125454608D01*
X101103899Y-125633932D01*
X101236858Y-125705000D01*
X101103899Y-125776068D01*
X100885392Y-125955392D01*
X100706068Y-126173899D01*
X100572818Y-126423192D01*
X100490764Y-126693691D01*
X100463057Y-126975000D01*
X100490764Y-127256309D01*
X100572818Y-127526808D01*
X100706068Y-127776101D01*
X100885392Y-127994608D01*
X101103899Y-128173932D01*
X101353192Y-128307182D01*
X101623691Y-128389236D01*
X101834508Y-128410000D01*
X101975492Y-128410000D01*
X102186309Y-128389236D01*
X102456808Y-128307182D01*
X102706101Y-128173932D01*
X102912531Y-128004520D01*
X103702370Y-128794359D01*
X103554870Y-128816213D01*
X103288708Y-128911397D01*
X103163486Y-128978329D01*
X103091903Y-129222298D01*
X103905000Y-130035395D01*
X103919143Y-130021253D01*
X104098748Y-130200858D01*
X104084605Y-130215000D01*
X104897702Y-131028097D01*
X105141671Y-130956514D01*
X105262571Y-130701004D01*
X105331300Y-130426816D01*
X105338543Y-130279872D01*
X172265000Y-130279872D01*
X172265000Y-130720128D01*
X172350890Y-131151925D01*
X172519369Y-131558669D01*
X172763962Y-131924729D01*
X173075271Y-132236038D01*
X173441331Y-132480631D01*
X173848075Y-132649110D01*
X174279872Y-132735000D01*
X174720128Y-132735000D01*
X175151925Y-132649110D01*
X175558669Y-132480631D01*
X175924729Y-132236038D01*
X176236038Y-131924729D01*
X176480631Y-131558669D01*
X176649110Y-131151925D01*
X176735000Y-130720128D01*
X176735000Y-130279872D01*
X176649110Y-129848075D01*
X176480631Y-129441331D01*
X176236038Y-129075271D01*
X175924729Y-128763962D01*
X175558669Y-128519369D01*
X175151925Y-128350890D01*
X174720128Y-128265000D01*
X174279872Y-128265000D01*
X173848075Y-128350890D01*
X173441331Y-128519369D01*
X173075271Y-128763962D01*
X172763962Y-129075271D01*
X172519369Y-129441331D01*
X172350890Y-129848075D01*
X172265000Y-130279872D01*
X105338543Y-130279872D01*
X105345217Y-130144488D01*
X105303787Y-129864870D01*
X105208603Y-129598708D01*
X105141671Y-129473486D01*
X104897704Y-129401903D01*
X105013977Y-129285630D01*
X104938647Y-129210300D01*
X117688768Y-129210300D01*
X117734700Y-129214824D01*
X117780632Y-129210300D01*
X117917992Y-129196771D01*
X118094240Y-129143307D01*
X118256672Y-129056486D01*
X118399044Y-128939644D01*
X118428330Y-128903959D01*
X121117289Y-126215000D01*
X147212815Y-126215000D01*
X147241487Y-126506111D01*
X147326401Y-126786034D01*
X147464294Y-127044014D01*
X147649866Y-127270134D01*
X147875986Y-127455706D01*
X148133966Y-127593599D01*
X148413889Y-127678513D01*
X148632050Y-127700000D01*
X148777950Y-127700000D01*
X148996111Y-127678513D01*
X149276034Y-127593599D01*
X149534014Y-127455706D01*
X149760134Y-127270134D01*
X149945706Y-127044014D01*
X149975000Y-126989209D01*
X150004294Y-127044014D01*
X150189866Y-127270134D01*
X150415986Y-127455706D01*
X150673966Y-127593599D01*
X150953889Y-127678513D01*
X151172050Y-127700000D01*
X151317950Y-127700000D01*
X151536111Y-127678513D01*
X151816034Y-127593599D01*
X152074014Y-127455706D01*
X152300134Y-127270134D01*
X152485706Y-127044014D01*
X152515000Y-126989209D01*
X152544294Y-127044014D01*
X152729866Y-127270134D01*
X152955986Y-127455706D01*
X153213966Y-127593599D01*
X153493889Y-127678513D01*
X153712050Y-127700000D01*
X153857950Y-127700000D01*
X154076111Y-127678513D01*
X154356034Y-127593599D01*
X154614014Y-127455706D01*
X154840134Y-127270134D01*
X155025706Y-127044014D01*
X155055000Y-126989209D01*
X155084294Y-127044014D01*
X155269866Y-127270134D01*
X155495986Y-127455706D01*
X155753966Y-127593599D01*
X156033889Y-127678513D01*
X156252050Y-127700000D01*
X156397950Y-127700000D01*
X156616111Y-127678513D01*
X156896034Y-127593599D01*
X157154014Y-127455706D01*
X157380134Y-127270134D01*
X157565706Y-127044014D01*
X157595000Y-126989209D01*
X157624294Y-127044014D01*
X157809866Y-127270134D01*
X158035986Y-127455706D01*
X158293966Y-127593599D01*
X158573889Y-127678513D01*
X158792050Y-127700000D01*
X158937950Y-127700000D01*
X159156111Y-127678513D01*
X159436034Y-127593599D01*
X159694014Y-127455706D01*
X159920134Y-127270134D01*
X159944607Y-127240313D01*
X159965498Y-127309180D01*
X160024463Y-127419494D01*
X160103815Y-127516185D01*
X160200506Y-127595537D01*
X160310820Y-127654502D01*
X160430518Y-127690812D01*
X160555000Y-127703072D01*
X161119250Y-127700000D01*
X161278000Y-127541250D01*
X161278000Y-126342000D01*
X161532000Y-126342000D01*
X161532000Y-127541250D01*
X161690750Y-127700000D01*
X162255000Y-127703072D01*
X162379482Y-127690812D01*
X162499180Y-127654502D01*
X162609494Y-127595537D01*
X162706185Y-127516185D01*
X162785537Y-127419494D01*
X162844502Y-127309180D01*
X162880812Y-127189482D01*
X162893072Y-127065000D01*
X162890000Y-126500750D01*
X162731250Y-126342000D01*
X161532000Y-126342000D01*
X161278000Y-126342000D01*
X161258000Y-126342000D01*
X161258000Y-126088000D01*
X161278000Y-126088000D01*
X161278000Y-124888750D01*
X161532000Y-124888750D01*
X161532000Y-126088000D01*
X162731250Y-126088000D01*
X162890000Y-125929250D01*
X162893072Y-125365000D01*
X162880812Y-125240518D01*
X162844502Y-125120820D01*
X162785537Y-125010506D01*
X162706185Y-124913815D01*
X162609494Y-124834463D01*
X162499180Y-124775498D01*
X162379482Y-124739188D01*
X162255000Y-124726928D01*
X161690750Y-124730000D01*
X161532000Y-124888750D01*
X161278000Y-124888750D01*
X161119250Y-124730000D01*
X160555000Y-124726928D01*
X160430518Y-124739188D01*
X160310820Y-124775498D01*
X160200506Y-124834463D01*
X160103815Y-124913815D01*
X160024463Y-125010506D01*
X159965498Y-125120820D01*
X159944607Y-125189687D01*
X159920134Y-125159866D01*
X159694014Y-124974294D01*
X159436034Y-124836401D01*
X159156111Y-124751487D01*
X158937950Y-124730000D01*
X158792050Y-124730000D01*
X158573889Y-124751487D01*
X158293966Y-124836401D01*
X158035986Y-124974294D01*
X157809866Y-125159866D01*
X157624294Y-125385986D01*
X157595000Y-125440791D01*
X157565706Y-125385986D01*
X157380134Y-125159866D01*
X157154014Y-124974294D01*
X156896034Y-124836401D01*
X156616111Y-124751487D01*
X156397950Y-124730000D01*
X156252050Y-124730000D01*
X156033889Y-124751487D01*
X155753966Y-124836401D01*
X155495986Y-124974294D01*
X155269866Y-125159866D01*
X155084294Y-125385986D01*
X155055000Y-125440791D01*
X155025706Y-125385986D01*
X154840134Y-125159866D01*
X154614014Y-124974294D01*
X154356034Y-124836401D01*
X154076111Y-124751487D01*
X153857950Y-124730000D01*
X153712050Y-124730000D01*
X153493889Y-124751487D01*
X153213966Y-124836401D01*
X152955986Y-124974294D01*
X152729866Y-125159866D01*
X152544294Y-125385986D01*
X152515000Y-125440791D01*
X152485706Y-125385986D01*
X152300134Y-125159866D01*
X152074014Y-124974294D01*
X151816034Y-124836401D01*
X151536111Y-124751487D01*
X151317950Y-124730000D01*
X151172050Y-124730000D01*
X150953889Y-124751487D01*
X150673966Y-124836401D01*
X150415986Y-124974294D01*
X150189866Y-125159866D01*
X150004294Y-125385986D01*
X149975000Y-125440791D01*
X149945706Y-125385986D01*
X149760134Y-125159866D01*
X149534014Y-124974294D01*
X149276034Y-124836401D01*
X148996111Y-124751487D01*
X148777950Y-124730000D01*
X148632050Y-124730000D01*
X148413889Y-124751487D01*
X148133966Y-124836401D01*
X147875986Y-124974294D01*
X147649866Y-125159866D01*
X147464294Y-125385986D01*
X147326401Y-125643966D01*
X147241487Y-125923889D01*
X147212815Y-126215000D01*
X121117289Y-126215000D01*
X125767959Y-121564330D01*
X125803644Y-121535044D01*
X125920486Y-121392672D01*
X126007307Y-121230240D01*
X126036198Y-121135000D01*
X126060772Y-121053992D01*
X126078824Y-120870700D01*
X126074300Y-120824765D01*
X126074300Y-119207702D01*
X134591903Y-119207702D01*
X134663486Y-119451671D01*
X134918996Y-119572571D01*
X135193184Y-119641300D01*
X135475512Y-119655217D01*
X135755130Y-119613787D01*
X136021292Y-119518603D01*
X136146514Y-119451671D01*
X136218097Y-119207702D01*
X135405000Y-118394605D01*
X134591903Y-119207702D01*
X126074300Y-119207702D01*
X126074300Y-117470300D01*
X134179188Y-117470300D01*
X134168329Y-117473486D01*
X134047429Y-117728996D01*
X133978700Y-118003184D01*
X133964783Y-118285512D01*
X134006213Y-118565130D01*
X134101397Y-118831292D01*
X134168329Y-118956514D01*
X134412298Y-119028097D01*
X135225395Y-118215000D01*
X135211253Y-118200858D01*
X135390858Y-118021253D01*
X135405000Y-118035395D01*
X135419143Y-118021253D01*
X135598748Y-118200858D01*
X135584605Y-118215000D01*
X136397702Y-119028097D01*
X136641671Y-118956514D01*
X136655324Y-118927659D01*
X136790363Y-119129759D01*
X136990241Y-119329637D01*
X137225273Y-119486680D01*
X137486426Y-119594853D01*
X137763665Y-119650000D01*
X138046335Y-119650000D01*
X138323574Y-119594853D01*
X138584727Y-119486680D01*
X138819759Y-119329637D01*
X139019637Y-119129759D01*
X139176680Y-118894727D01*
X139284853Y-118633574D01*
X139340000Y-118356335D01*
X139340000Y-118073665D01*
X139284853Y-117796426D01*
X139176680Y-117535273D01*
X139133267Y-117470300D01*
X161498468Y-117470300D01*
X161544400Y-117474824D01*
X161590332Y-117470300D01*
X161727692Y-117456771D01*
X161903940Y-117403307D01*
X162066372Y-117316486D01*
X162208744Y-117199644D01*
X162238030Y-117163959D01*
X163137469Y-116264520D01*
X163343899Y-116433932D01*
X163593192Y-116567182D01*
X163863691Y-116649236D01*
X164074508Y-116670000D01*
X164215492Y-116670000D01*
X164426309Y-116649236D01*
X164696808Y-116567182D01*
X164946101Y-116433932D01*
X165164608Y-116254608D01*
X165234044Y-116170000D01*
X165399368Y-116170000D01*
X165445300Y-116174524D01*
X165491232Y-116170000D01*
X165628592Y-116156471D01*
X165649924Y-116150000D01*
X166310604Y-116150000D01*
X166490241Y-116329637D01*
X166725273Y-116486680D01*
X166986426Y-116594853D01*
X167263665Y-116650000D01*
X167546335Y-116650000D01*
X167823574Y-116594853D01*
X168084727Y-116486680D01*
X168319759Y-116329637D01*
X168519637Y-116129759D01*
X168676680Y-115894727D01*
X168784853Y-115633574D01*
X168840000Y-115356335D01*
X168840000Y-115073665D01*
X168784853Y-114796426D01*
X168676680Y-114535273D01*
X168519637Y-114300241D01*
X168319759Y-114100363D01*
X168119131Y-113966308D01*
X168146514Y-113951671D01*
X168218097Y-113707702D01*
X167405000Y-112894605D01*
X166591903Y-113707702D01*
X166663486Y-113951671D01*
X166692341Y-113965324D01*
X166490241Y-114100363D01*
X166310604Y-114280000D01*
X165511231Y-114280000D01*
X165465299Y-114275476D01*
X165309726Y-114290799D01*
X165282008Y-114293529D01*
X165260676Y-114300000D01*
X165234044Y-114300000D01*
X165164608Y-114215392D01*
X164946101Y-114036068D01*
X164808318Y-113962421D01*
X165000131Y-113847385D01*
X165208519Y-113658414D01*
X165376037Y-113432420D01*
X165496246Y-113178087D01*
X165536904Y-113044039D01*
X165414915Y-112822000D01*
X164272000Y-112822000D01*
X164272000Y-112842000D01*
X164018000Y-112842000D01*
X164018000Y-112822000D01*
X162875085Y-112822000D01*
X162753096Y-113044039D01*
X162793754Y-113178087D01*
X162913963Y-113432420D01*
X163081481Y-113658414D01*
X163289869Y-113847385D01*
X163481682Y-113962421D01*
X163343899Y-114036068D01*
X163125392Y-114215392D01*
X163055956Y-114300000D01*
X162890632Y-114300000D01*
X162844700Y-114295476D01*
X162798768Y-114300000D01*
X162661408Y-114313529D01*
X162485160Y-114366993D01*
X162322728Y-114453814D01*
X162180356Y-114570656D01*
X162151070Y-114606341D01*
X161157111Y-115600300D01*
X150293758Y-115600300D01*
X150319236Y-115516309D01*
X150346943Y-115235000D01*
X150319236Y-114953691D01*
X150237182Y-114683192D01*
X150103932Y-114433899D01*
X150028688Y-114342214D01*
X150541303Y-113829599D01*
X150570301Y-113805801D01*
X150665274Y-113690076D01*
X150735846Y-113558047D01*
X150779303Y-113414786D01*
X150790300Y-113303133D01*
X150790300Y-113303123D01*
X150793976Y-113265800D01*
X150790300Y-113228477D01*
X150790300Y-112785512D01*
X165964783Y-112785512D01*
X166006213Y-113065130D01*
X166101397Y-113331292D01*
X166168329Y-113456514D01*
X166412298Y-113528097D01*
X167225395Y-112715000D01*
X167584605Y-112715000D01*
X168397702Y-113528097D01*
X168641671Y-113456514D01*
X168762571Y-113201004D01*
X168831300Y-112926816D01*
X168845217Y-112644488D01*
X168803787Y-112364870D01*
X168708603Y-112098708D01*
X168641671Y-111973486D01*
X168397702Y-111901903D01*
X167584605Y-112715000D01*
X167225395Y-112715000D01*
X166412298Y-111901903D01*
X166168329Y-111973486D01*
X166047429Y-112228996D01*
X165978700Y-112503184D01*
X165964783Y-112785512D01*
X150790300Y-112785512D01*
X150790300Y-112265833D01*
X150793977Y-112228500D01*
X150779303Y-112079514D01*
X150735846Y-111936253D01*
X150665274Y-111804224D01*
X150594099Y-111717497D01*
X150570301Y-111688499D01*
X150541304Y-111664702D01*
X149981674Y-111105073D01*
X150103932Y-110956101D01*
X150237182Y-110706808D01*
X150319236Y-110436309D01*
X150346943Y-110155000D01*
X150319236Y-109873691D01*
X150237182Y-109603192D01*
X150103932Y-109353899D01*
X149924608Y-109135392D01*
X149706101Y-108956068D01*
X149573142Y-108885000D01*
X149706101Y-108813932D01*
X149924608Y-108634608D01*
X150103932Y-108416101D01*
X150125901Y-108375000D01*
X160164899Y-108375000D01*
X162455905Y-110666008D01*
X162479699Y-110695001D01*
X162508692Y-110718795D01*
X162508696Y-110718799D01*
X162579385Y-110776811D01*
X162595424Y-110789974D01*
X162727453Y-110860546D01*
X162870714Y-110904003D01*
X162920861Y-110908942D01*
X162946068Y-110956101D01*
X163125392Y-111174608D01*
X163343899Y-111353932D01*
X163481682Y-111427579D01*
X163289869Y-111542615D01*
X163081481Y-111731586D01*
X162913963Y-111957580D01*
X162793754Y-112211913D01*
X162753096Y-112345961D01*
X162875085Y-112568000D01*
X164018000Y-112568000D01*
X164018000Y-112548000D01*
X164272000Y-112548000D01*
X164272000Y-112568000D01*
X165414915Y-112568000D01*
X165536904Y-112345961D01*
X165496246Y-112211913D01*
X165376037Y-111957580D01*
X165208519Y-111731586D01*
X165198277Y-111722298D01*
X166591903Y-111722298D01*
X167405000Y-112535395D01*
X168218097Y-111722298D01*
X168146514Y-111478329D01*
X167891004Y-111357429D01*
X167616816Y-111288700D01*
X167334488Y-111274783D01*
X167054870Y-111316213D01*
X166788708Y-111411397D01*
X166663486Y-111478329D01*
X166591903Y-111722298D01*
X165198277Y-111722298D01*
X165000131Y-111542615D01*
X164808318Y-111427579D01*
X164946101Y-111353932D01*
X165164608Y-111174608D01*
X165343932Y-110956101D01*
X165477182Y-110706808D01*
X165559236Y-110436309D01*
X165586943Y-110155000D01*
X165559236Y-109873691D01*
X165477182Y-109603192D01*
X165343932Y-109353899D01*
X165164608Y-109135392D01*
X164946101Y-108956068D01*
X164813142Y-108885000D01*
X164946101Y-108813932D01*
X165164608Y-108634608D01*
X165343932Y-108416101D01*
X165477182Y-108166808D01*
X165559236Y-107896309D01*
X165586943Y-107615000D01*
X165559236Y-107333691D01*
X165545708Y-107289094D01*
X166251303Y-106583499D01*
X166280301Y-106559701D01*
X166326682Y-106503186D01*
X166375274Y-106443977D01*
X166445846Y-106311947D01*
X166446301Y-106310446D01*
X166489303Y-106168686D01*
X166500300Y-106057033D01*
X166500300Y-106057023D01*
X166503976Y-106019700D01*
X166500300Y-105982377D01*
X166500300Y-100016325D01*
X166503976Y-99979000D01*
X166500300Y-99941675D01*
X166500300Y-99941667D01*
X166489303Y-99830014D01*
X166445846Y-99686753D01*
X166375274Y-99554724D01*
X166280301Y-99438999D01*
X166251304Y-99415202D01*
X165230464Y-98394363D01*
X165343932Y-98256101D01*
X165477182Y-98006808D01*
X165559236Y-97736309D01*
X165586943Y-97455000D01*
X165559236Y-97173691D01*
X165477182Y-96903192D01*
X165343932Y-96653899D01*
X165164608Y-96435392D01*
X164946101Y-96256068D01*
X164813142Y-96185000D01*
X164946101Y-96113932D01*
X165164608Y-95934608D01*
X165343932Y-95716101D01*
X165477182Y-95466808D01*
X165559236Y-95196309D01*
X165586943Y-94915000D01*
X165559236Y-94633691D01*
X165477182Y-94363192D01*
X165343932Y-94113899D01*
X165164608Y-93895392D01*
X164946101Y-93716068D01*
X164813142Y-93645000D01*
X164946101Y-93573932D01*
X165164608Y-93394608D01*
X165343932Y-93176101D01*
X165477182Y-92926808D01*
X165559236Y-92656309D01*
X165586943Y-92375000D01*
X165559236Y-92093691D01*
X165477182Y-91823192D01*
X165343932Y-91573899D01*
X165268643Y-91482159D01*
X166720709Y-90030094D01*
X166749701Y-90006301D01*
X166773495Y-89977308D01*
X166773499Y-89977304D01*
X166844673Y-89890577D01*
X166844674Y-89890576D01*
X166915246Y-89758547D01*
X166958703Y-89615286D01*
X166969700Y-89503633D01*
X166969700Y-89503624D01*
X166973376Y-89466301D01*
X166969700Y-89428978D01*
X166969700Y-78575922D01*
X166973376Y-78538599D01*
X166969700Y-78501276D01*
X166969700Y-78501267D01*
X166958703Y-78389614D01*
X166915246Y-78246353D01*
X166844674Y-78114324D01*
X166816527Y-78080027D01*
X166773499Y-78027596D01*
X166773495Y-78027592D01*
X166749701Y-77998599D01*
X166720708Y-77974805D01*
X155118904Y-66373003D01*
X155095101Y-66343999D01*
X154979376Y-66249026D01*
X154847347Y-66178454D01*
X154704086Y-66134997D01*
X154592433Y-66124000D01*
X154592422Y-66124000D01*
X154555100Y-66120324D01*
X154517778Y-66124000D01*
X116007022Y-66124000D01*
X115969699Y-66120324D01*
X115932376Y-66124000D01*
X115932367Y-66124000D01*
X115820714Y-66134997D01*
X115677453Y-66178454D01*
X115545424Y-66249026D01*
X115545422Y-66249027D01*
X115545423Y-66249027D01*
X115458696Y-66320201D01*
X115458692Y-66320205D01*
X115429699Y-66343999D01*
X115405905Y-66372992D01*
X113964680Y-67814219D01*
X113849014Y-67719294D01*
X113591034Y-67581401D01*
X113311111Y-67496487D01*
X113092950Y-67475000D01*
X112947050Y-67475000D01*
X112728889Y-67496487D01*
X112448966Y-67581401D01*
X112190986Y-67719294D01*
X111964866Y-67904866D01*
X111779294Y-68130986D01*
X111750000Y-68185791D01*
X111720706Y-68130986D01*
X111535134Y-67904866D01*
X111309014Y-67719294D01*
X111051034Y-67581401D01*
X110771111Y-67496487D01*
X110552950Y-67475000D01*
X110407050Y-67475000D01*
X110188889Y-67496487D01*
X109908966Y-67581401D01*
X109650986Y-67719294D01*
X109424866Y-67904866D01*
X109239294Y-68130986D01*
X109210000Y-68185791D01*
X109180706Y-68130986D01*
X108995134Y-67904866D01*
X108769014Y-67719294D01*
X108511034Y-67581401D01*
X108231111Y-67496487D01*
X108012950Y-67475000D01*
X107867050Y-67475000D01*
X107648889Y-67496487D01*
X107368966Y-67581401D01*
X107110986Y-67719294D01*
X106884866Y-67904866D01*
X106699294Y-68130986D01*
X106670000Y-68185791D01*
X106640706Y-68130986D01*
X106455134Y-67904866D01*
X106229014Y-67719294D01*
X105971034Y-67581401D01*
X105691111Y-67496487D01*
X105472950Y-67475000D01*
X105327050Y-67475000D01*
X105108889Y-67496487D01*
X104828966Y-67581401D01*
X104570986Y-67719294D01*
X104344866Y-67904866D01*
X104159294Y-68130986D01*
X104021401Y-68388966D01*
X103936487Y-68668889D01*
X103907815Y-68960000D01*
X103936487Y-69251111D01*
X104021401Y-69531034D01*
X104159294Y-69789014D01*
X104344866Y-70015134D01*
X104374687Y-70039607D01*
X104305820Y-70060498D01*
X104195506Y-70119463D01*
X104098815Y-70198815D01*
X104019463Y-70295506D01*
X103960498Y-70405820D01*
X103924188Y-70525518D01*
X103911928Y-70650000D01*
X103911928Y-72350000D01*
X103924188Y-72474482D01*
X103960498Y-72594180D01*
X104019463Y-72704494D01*
X104098815Y-72801185D01*
X104195506Y-72880537D01*
X104305820Y-72939502D01*
X104425518Y-72975812D01*
X104550000Y-72988072D01*
X106250000Y-72988072D01*
X106374482Y-72975812D01*
X106494180Y-72939502D01*
X106604494Y-72880537D01*
X106701185Y-72801185D01*
X106780537Y-72704494D01*
X106839502Y-72594180D01*
X106860393Y-72525313D01*
X106884866Y-72555134D01*
X107110986Y-72740706D01*
X107368966Y-72878599D01*
X107648889Y-72963513D01*
X107867050Y-72985000D01*
X108012950Y-72985000D01*
X108231111Y-72963513D01*
X108511034Y-72878599D01*
X108769014Y-72740706D01*
X108995134Y-72555134D01*
X109180706Y-72329014D01*
X109210000Y-72274209D01*
X109239294Y-72329014D01*
X109424866Y-72555134D01*
X109650986Y-72740706D01*
X109908966Y-72878599D01*
X110188889Y-72963513D01*
X110407050Y-72985000D01*
X110552950Y-72985000D01*
X110771111Y-72963513D01*
X111051034Y-72878599D01*
X111309014Y-72740706D01*
X111535134Y-72555134D01*
X111720706Y-72329014D01*
X111750000Y-72274209D01*
X111779294Y-72329014D01*
X111964866Y-72555134D01*
X112190986Y-72740706D01*
X112448966Y-72878599D01*
X112728889Y-72963513D01*
X112947050Y-72985000D01*
X113092950Y-72985000D01*
X113311111Y-72963513D01*
X113591034Y-72878599D01*
X113849014Y-72740706D01*
X114075134Y-72555134D01*
X114260706Y-72329014D01*
X114290000Y-72274209D01*
X114319294Y-72329014D01*
X114504866Y-72555134D01*
X114730986Y-72740706D01*
X114988966Y-72878599D01*
X115268889Y-72963513D01*
X115487050Y-72985000D01*
X115632950Y-72985000D01*
X115851111Y-72963513D01*
X116131034Y-72878599D01*
X116389014Y-72740706D01*
X116615134Y-72555134D01*
X116800706Y-72329014D01*
X116830000Y-72274209D01*
X116859294Y-72329014D01*
X117044866Y-72555134D01*
X117270986Y-72740706D01*
X117346755Y-72781205D01*
X117350998Y-72824286D01*
X117364180Y-72867742D01*
X117394454Y-72967546D01*
X117465026Y-73099576D01*
X117496434Y-73137846D01*
X117510300Y-73154741D01*
X117510300Y-77326242D01*
X117426309Y-77300764D01*
X117215492Y-77280000D01*
X117074508Y-77280000D01*
X116863691Y-77300764D01*
X116593192Y-77382818D01*
X116343899Y-77516068D01*
X116125392Y-77695392D01*
X115946068Y-77913899D01*
X115920861Y-77961058D01*
X115870714Y-77965997D01*
X115727453Y-78009454D01*
X115595424Y-78080026D01*
X115479699Y-78174999D01*
X115455901Y-78203997D01*
X106895199Y-86764700D01*
X103274223Y-86764700D01*
X103319236Y-86616309D01*
X103346943Y-86335000D01*
X103319236Y-86053691D01*
X103237182Y-85783192D01*
X103103932Y-85533899D01*
X102924608Y-85315392D01*
X102706101Y-85136068D01*
X102573142Y-85065000D01*
X102706101Y-84993932D01*
X102924608Y-84814608D01*
X103103932Y-84596101D01*
X103237182Y-84346808D01*
X103319236Y-84076309D01*
X103346943Y-83795000D01*
X103319236Y-83513691D01*
X103237182Y-83243192D01*
X103103932Y-82993899D01*
X102924608Y-82775392D01*
X102706101Y-82596068D01*
X102573142Y-82525000D01*
X102706101Y-82453932D01*
X102924608Y-82274608D01*
X103103932Y-82056101D01*
X103237182Y-81806808D01*
X103319236Y-81536309D01*
X103346943Y-81255000D01*
X103319236Y-80973691D01*
X103237182Y-80703192D01*
X103103932Y-80453899D01*
X102924608Y-80235392D01*
X102811518Y-80142581D01*
X102829482Y-80140812D01*
X102949180Y-80104502D01*
X103059494Y-80045537D01*
X103156185Y-79966185D01*
X103235537Y-79869494D01*
X103294502Y-79759180D01*
X103330812Y-79639482D01*
X103343072Y-79515000D01*
X103340000Y-79000750D01*
X103181250Y-78842000D01*
X102032000Y-78842000D01*
X102032000Y-78862000D01*
X101778000Y-78862000D01*
X101778000Y-78842000D01*
X100628750Y-78842000D01*
X100470000Y-79000750D01*
X100466928Y-79515000D01*
X100479188Y-79639482D01*
X100515498Y-79759180D01*
X100574463Y-79869494D01*
X100653815Y-79966185D01*
X100750506Y-80045537D01*
X100860820Y-80104502D01*
X100980518Y-80140812D01*
X100998482Y-80142581D01*
X100885392Y-80235392D01*
X100862630Y-80263128D01*
X98514502Y-77915000D01*
X100466928Y-77915000D01*
X100470000Y-78429250D01*
X100628750Y-78588000D01*
X101778000Y-78588000D01*
X101778000Y-77438750D01*
X102032000Y-77438750D01*
X102032000Y-78588000D01*
X103181250Y-78588000D01*
X103340000Y-78429250D01*
X103343072Y-77915000D01*
X103330812Y-77790518D01*
X103294502Y-77670820D01*
X103235537Y-77560506D01*
X103156185Y-77463815D01*
X103059494Y-77384463D01*
X102949180Y-77325498D01*
X102829482Y-77289188D01*
X102705000Y-77276928D01*
X102190750Y-77280000D01*
X102032000Y-77438750D01*
X101778000Y-77438750D01*
X101619250Y-77280000D01*
X101105000Y-77276928D01*
X100980518Y-77289188D01*
X100860820Y-77325498D01*
X100750506Y-77384463D01*
X100653815Y-77463815D01*
X100574463Y-77560506D01*
X100515498Y-77670820D01*
X100479188Y-77790518D01*
X100466928Y-77915000D01*
X98514502Y-77915000D01*
X97263804Y-76664303D01*
X97240001Y-76635299D01*
X97124276Y-76540326D01*
X96992247Y-76469754D01*
X96848986Y-76426297D01*
X96737333Y-76415300D01*
X96737322Y-76415300D01*
X96700000Y-76411624D01*
X96662678Y-76415300D01*
X90465841Y-76415300D01*
X90503513Y-76291111D01*
X90532185Y-76000000D01*
X90503513Y-75708889D01*
X90418599Y-75428966D01*
X90280706Y-75170986D01*
X90095134Y-74944866D01*
X89869014Y-74759294D01*
X89611034Y-74621401D01*
X89331111Y-74536487D01*
X89112950Y-74515000D01*
X88967050Y-74515000D01*
X88748889Y-74536487D01*
X88468966Y-74621401D01*
X88210986Y-74759294D01*
X87984866Y-74944866D01*
X87960393Y-74974687D01*
X87939502Y-74905820D01*
X87880537Y-74795506D01*
X87801185Y-74698815D01*
X87704494Y-74619463D01*
X87594180Y-74560498D01*
X87474482Y-74524188D01*
X87350000Y-74511928D01*
X85650000Y-74511928D01*
X85525518Y-74524188D01*
X85405820Y-74560498D01*
X85295506Y-74619463D01*
X85198815Y-74698815D01*
X85119463Y-74795506D01*
X85060498Y-74905820D01*
X85024188Y-75025518D01*
X85011928Y-75150000D01*
X85011928Y-76850000D01*
X85024188Y-76974482D01*
X85060498Y-77094180D01*
X85119463Y-77204494D01*
X85198815Y-77301185D01*
X85295506Y-77380537D01*
X85405820Y-77439502D01*
X85474687Y-77460393D01*
X85444866Y-77484866D01*
X85259294Y-77710986D01*
X85121401Y-77968966D01*
X85036487Y-78248889D01*
X85007815Y-78540000D01*
X85036487Y-78831111D01*
X85121401Y-79111034D01*
X85259294Y-79369014D01*
X85444866Y-79595134D01*
X85670986Y-79780706D01*
X85725791Y-79810000D01*
X85670986Y-79839294D01*
X85444866Y-80024866D01*
X85259294Y-80250986D01*
X85121401Y-80508966D01*
X85036487Y-80788889D01*
X85007815Y-81080000D01*
X85036487Y-81371111D01*
X85121401Y-81651034D01*
X85259294Y-81909014D01*
X85444866Y-82135134D01*
X85670986Y-82320706D01*
X85725791Y-82350000D01*
X85670986Y-82379294D01*
X85444866Y-82564866D01*
X85259294Y-82790986D01*
X85121401Y-83048966D01*
X85036487Y-83328889D01*
X85007815Y-83620000D01*
X85036487Y-83911111D01*
X85121401Y-84191034D01*
X85259294Y-84449014D01*
X85444866Y-84675134D01*
X85670986Y-84860706D01*
X85725791Y-84890000D01*
X85670986Y-84919294D01*
X85444866Y-85104866D01*
X85259294Y-85330986D01*
X85121401Y-85588966D01*
X85036487Y-85868889D01*
X85007815Y-86160000D01*
X85036487Y-86451111D01*
X85121401Y-86731034D01*
X85259294Y-86989014D01*
X85444866Y-87215134D01*
X85670986Y-87400706D01*
X85725791Y-87430000D01*
X85670986Y-87459294D01*
X85444866Y-87644866D01*
X85259294Y-87870986D01*
X85121401Y-88128966D01*
X85036487Y-88408889D01*
X85007815Y-88700000D01*
X85036487Y-88991111D01*
X85121401Y-89271034D01*
X85259294Y-89529014D01*
X85444866Y-89755134D01*
X85670986Y-89940706D01*
X85725791Y-89970000D01*
X85670986Y-89999294D01*
X85444866Y-90184866D01*
X85259294Y-90410986D01*
X85121401Y-90668966D01*
X85036487Y-90948889D01*
X85007815Y-91240000D01*
X85036487Y-91531111D01*
X85121401Y-91811034D01*
X85259294Y-92069014D01*
X85444866Y-92295134D01*
X85460251Y-92307760D01*
X84520936Y-93247075D01*
X84485257Y-93276356D01*
X84368415Y-93418728D01*
X84291447Y-93562727D01*
X84281594Y-93581160D01*
X84228129Y-93757409D01*
X84210076Y-93940700D01*
X80660000Y-93940700D01*
X80660000Y-64279872D01*
X83265000Y-64279872D01*
X83265000Y-64720128D01*
X83350890Y-65151925D01*
X83519369Y-65558669D01*
X83763962Y-65924729D01*
X84075271Y-66236038D01*
X84441331Y-66480631D01*
X84848075Y-66649110D01*
X85279872Y-66735000D01*
X85720128Y-66735000D01*
X86151925Y-66649110D01*
X86558669Y-66480631D01*
X86924729Y-66236038D01*
X87236038Y-65924729D01*
X87480631Y-65558669D01*
X87649110Y-65151925D01*
X87735000Y-64720128D01*
X87735000Y-64279872D01*
X172265000Y-64279872D01*
X172265000Y-64720128D01*
X172350890Y-65151925D01*
X172519369Y-65558669D01*
X172763962Y-65924729D01*
X173075271Y-66236038D01*
X173441331Y-66480631D01*
X173848075Y-66649110D01*
X174279872Y-66735000D01*
X174720128Y-66735000D01*
X175151925Y-66649110D01*
X175558669Y-66480631D01*
X175924729Y-66236038D01*
X176236038Y-65924729D01*
X176480631Y-65558669D01*
X176649110Y-65151925D01*
X176735000Y-64720128D01*
X176735000Y-64279872D01*
X176649110Y-63848075D01*
X176480631Y-63441331D01*
X176236038Y-63075271D01*
X175924729Y-62763962D01*
X175558669Y-62519369D01*
X175151925Y-62350890D01*
X174720128Y-62265000D01*
X174279872Y-62265000D01*
X173848075Y-62350890D01*
X173441331Y-62519369D01*
X173075271Y-62763962D01*
X172763962Y-63075271D01*
X172519369Y-63441331D01*
X172350890Y-63848075D01*
X172265000Y-64279872D01*
X87735000Y-64279872D01*
X87649110Y-63848075D01*
X87480631Y-63441331D01*
X87236038Y-63075271D01*
X86924729Y-62763962D01*
X86558669Y-62519369D01*
X86151925Y-62350890D01*
X85720128Y-62265000D01*
X85279872Y-62265000D01*
X84848075Y-62350890D01*
X84441331Y-62519369D01*
X84075271Y-62763962D01*
X83763962Y-63075271D01*
X83519369Y-63441331D01*
X83350890Y-63848075D01*
X83265000Y-64279872D01*
X80660000Y-64279872D01*
X80660000Y-60660000D01*
X179340000Y-60660000D01*
X179340001Y-134340000D01*
X179340001Y-134340000D01*
G37*
X179340001Y-134340000D02*
X80660000Y-134340000D01*
X80660000Y-130279872D01*
X83265000Y-130279872D01*
X83265000Y-130720128D01*
X83350890Y-131151925D01*
X83519369Y-131558669D01*
X83763962Y-131924729D01*
X84075271Y-132236038D01*
X84441331Y-132480631D01*
X84848075Y-132649110D01*
X85279872Y-132735000D01*
X85720128Y-132735000D01*
X86151925Y-132649110D01*
X86558669Y-132480631D01*
X86924729Y-132236038D01*
X87236038Y-131924729D01*
X87480631Y-131558669D01*
X87649110Y-131151925D01*
X87735000Y-130720128D01*
X87735000Y-130279872D01*
X87693983Y-130073665D01*
X99970000Y-130073665D01*
X99970000Y-130356335D01*
X100025147Y-130633574D01*
X100133320Y-130894727D01*
X100290363Y-131129759D01*
X100490241Y-131329637D01*
X100725273Y-131486680D01*
X100986426Y-131594853D01*
X101263665Y-131650000D01*
X101546335Y-131650000D01*
X101823574Y-131594853D01*
X102084727Y-131486680D01*
X102319759Y-131329637D01*
X102441694Y-131207702D01*
X103091903Y-131207702D01*
X103163486Y-131451671D01*
X103418996Y-131572571D01*
X103693184Y-131641300D01*
X103975512Y-131655217D01*
X104255130Y-131613787D01*
X104521292Y-131518603D01*
X104646514Y-131451671D01*
X104718097Y-131207702D01*
X103905000Y-130394605D01*
X103091903Y-131207702D01*
X102441694Y-131207702D01*
X102519637Y-131129759D01*
X102653692Y-130929131D01*
X102668329Y-130956514D01*
X102912298Y-131028097D01*
X103725395Y-130215000D01*
X102912298Y-129401903D01*
X102668329Y-129473486D01*
X102654676Y-129502341D01*
X102519637Y-129300241D01*
X102319759Y-129100363D01*
X102084727Y-128943320D01*
X101823574Y-128835147D01*
X101546335Y-128780000D01*
X101263665Y-128780000D01*
X100986426Y-128835147D01*
X100725273Y-128943320D01*
X100490241Y-129100363D01*
X100290363Y-129300241D01*
X100133320Y-129535273D01*
X100025147Y-129796426D01*
X99970000Y-130073665D01*
X87693983Y-130073665D01*
X87649110Y-129848075D01*
X87480631Y-129441331D01*
X87236038Y-129075271D01*
X86924729Y-128763962D01*
X86558669Y-128519369D01*
X86151925Y-128350890D01*
X85720128Y-128265000D01*
X85279872Y-128265000D01*
X84848075Y-128350890D01*
X84441331Y-128519369D01*
X84075271Y-128763962D01*
X83763962Y-129075271D01*
X83519369Y-129441331D01*
X83350890Y-129848075D01*
X83265000Y-130279872D01*
X80660000Y-130279872D01*
X80660000Y-93940700D01*
X84210076Y-93940700D01*
X84214601Y-93986642D01*
X84214600Y-118843668D01*
X84210076Y-118889600D01*
X84214600Y-118935531D01*
X84228129Y-119072891D01*
X84281593Y-119249139D01*
X84368414Y-119411571D01*
X84485256Y-119553944D01*
X84520941Y-119583230D01*
X85023048Y-120085337D01*
X85007815Y-120240000D01*
X85036487Y-120531111D01*
X85121401Y-120811034D01*
X85259294Y-121069014D01*
X85444866Y-121295134D01*
X85670986Y-121480706D01*
X85928966Y-121618599D01*
X86208889Y-121703513D01*
X86427050Y-121725000D01*
X86572950Y-121725000D01*
X86791111Y-121703513D01*
X87071034Y-121618599D01*
X87329014Y-121480706D01*
X87555134Y-121295134D01*
X87740706Y-121069014D01*
X87771584Y-121011244D01*
X87942412Y-121240269D01*
X88158645Y-121435178D01*
X88408748Y-121584157D01*
X88683109Y-121681481D01*
X88913000Y-121560814D01*
X88913000Y-120367000D01*
X89167000Y-120367000D01*
X89167000Y-121560814D01*
X89396891Y-121681481D01*
X89671252Y-121584157D01*
X89921355Y-121435178D01*
X90137588Y-121240269D01*
X90311641Y-121006920D01*
X90436825Y-120744099D01*
X90481476Y-120596890D01*
X90360155Y-120367000D01*
X89167000Y-120367000D01*
X88913000Y-120367000D01*
X88893000Y-120367000D01*
X88893000Y-120113000D01*
X88913000Y-120113000D01*
X88913000Y-120093000D01*
X89167000Y-120093000D01*
X89167000Y-120113000D01*
X90360155Y-120113000D01*
X90481476Y-119883110D01*
X90436825Y-119735901D01*
X90311641Y-119473080D01*
X90137588Y-119239731D01*
X89921355Y-119044822D01*
X89804477Y-118975201D01*
X89869014Y-118940706D01*
X90095134Y-118755134D01*
X90280706Y-118529014D01*
X90317595Y-118460000D01*
X93729899Y-118460000D01*
X100215901Y-124946003D01*
X100239699Y-124975001D01*
X100355424Y-125069974D01*
X100487453Y-125140546D01*
X100630714Y-125184003D01*
X100680861Y-125188942D01*
X100706068Y-125236101D01*
X100885392Y-125454608D01*
X101103899Y-125633932D01*
X101236858Y-125705000D01*
X101103899Y-125776068D01*
X100885392Y-125955392D01*
X100706068Y-126173899D01*
X100572818Y-126423192D01*
X100490764Y-126693691D01*
X100463057Y-126975000D01*
X100490764Y-127256309D01*
X100572818Y-127526808D01*
X100706068Y-127776101D01*
X100885392Y-127994608D01*
X101103899Y-128173932D01*
X101353192Y-128307182D01*
X101623691Y-128389236D01*
X101834508Y-128410000D01*
X101975492Y-128410000D01*
X102186309Y-128389236D01*
X102456808Y-128307182D01*
X102706101Y-128173932D01*
X102912531Y-128004520D01*
X103702370Y-128794359D01*
X103554870Y-128816213D01*
X103288708Y-128911397D01*
X103163486Y-128978329D01*
X103091903Y-129222298D01*
X103905000Y-130035395D01*
X103919143Y-130021253D01*
X104098748Y-130200858D01*
X104084605Y-130215000D01*
X104897702Y-131028097D01*
X105141671Y-130956514D01*
X105262571Y-130701004D01*
X105331300Y-130426816D01*
X105338543Y-130279872D01*
X172265000Y-130279872D01*
X172265000Y-130720128D01*
X172350890Y-131151925D01*
X172519369Y-131558669D01*
X172763962Y-131924729D01*
X173075271Y-132236038D01*
X173441331Y-132480631D01*
X173848075Y-132649110D01*
X174279872Y-132735000D01*
X174720128Y-132735000D01*
X175151925Y-132649110D01*
X175558669Y-132480631D01*
X175924729Y-132236038D01*
X176236038Y-131924729D01*
X176480631Y-131558669D01*
X176649110Y-131151925D01*
X176735000Y-130720128D01*
X176735000Y-130279872D01*
X176649110Y-129848075D01*
X176480631Y-129441331D01*
X176236038Y-129075271D01*
X175924729Y-128763962D01*
X175558669Y-128519369D01*
X175151925Y-128350890D01*
X174720128Y-128265000D01*
X174279872Y-128265000D01*
X173848075Y-128350890D01*
X173441331Y-128519369D01*
X173075271Y-128763962D01*
X172763962Y-129075271D01*
X172519369Y-129441331D01*
X172350890Y-129848075D01*
X172265000Y-130279872D01*
X105338543Y-130279872D01*
X105345217Y-130144488D01*
X105303787Y-129864870D01*
X105208603Y-129598708D01*
X105141671Y-129473486D01*
X104897704Y-129401903D01*
X105013977Y-129285630D01*
X104938647Y-129210300D01*
X117688768Y-129210300D01*
X117734700Y-129214824D01*
X117780632Y-129210300D01*
X117917992Y-129196771D01*
X118094240Y-129143307D01*
X118256672Y-129056486D01*
X118399044Y-128939644D01*
X118428330Y-128903959D01*
X121117289Y-126215000D01*
X147212815Y-126215000D01*
X147241487Y-126506111D01*
X147326401Y-126786034D01*
X147464294Y-127044014D01*
X147649866Y-127270134D01*
X147875986Y-127455706D01*
X148133966Y-127593599D01*
X148413889Y-127678513D01*
X148632050Y-127700000D01*
X148777950Y-127700000D01*
X148996111Y-127678513D01*
X149276034Y-127593599D01*
X149534014Y-127455706D01*
X149760134Y-127270134D01*
X149945706Y-127044014D01*
X149975000Y-126989209D01*
X150004294Y-127044014D01*
X150189866Y-127270134D01*
X150415986Y-127455706D01*
X150673966Y-127593599D01*
X150953889Y-127678513D01*
X151172050Y-127700000D01*
X151317950Y-127700000D01*
X151536111Y-127678513D01*
X151816034Y-127593599D01*
X152074014Y-127455706D01*
X152300134Y-127270134D01*
X152485706Y-127044014D01*
X152515000Y-126989209D01*
X152544294Y-127044014D01*
X152729866Y-127270134D01*
X152955986Y-127455706D01*
X153213966Y-127593599D01*
X153493889Y-127678513D01*
X153712050Y-127700000D01*
X153857950Y-127700000D01*
X154076111Y-127678513D01*
X154356034Y-127593599D01*
X154614014Y-127455706D01*
X154840134Y-127270134D01*
X155025706Y-127044014D01*
X155055000Y-126989209D01*
X155084294Y-127044014D01*
X155269866Y-127270134D01*
X155495986Y-127455706D01*
X155753966Y-127593599D01*
X156033889Y-127678513D01*
X156252050Y-127700000D01*
X156397950Y-127700000D01*
X156616111Y-127678513D01*
X156896034Y-127593599D01*
X157154014Y-127455706D01*
X157380134Y-127270134D01*
X157565706Y-127044014D01*
X157595000Y-126989209D01*
X157624294Y-127044014D01*
X157809866Y-127270134D01*
X158035986Y-127455706D01*
X158293966Y-127593599D01*
X158573889Y-127678513D01*
X158792050Y-127700000D01*
X158937950Y-127700000D01*
X159156111Y-127678513D01*
X159436034Y-127593599D01*
X159694014Y-127455706D01*
X159920134Y-127270134D01*
X159944607Y-127240313D01*
X159965498Y-127309180D01*
X160024463Y-127419494D01*
X160103815Y-127516185D01*
X160200506Y-127595537D01*
X160310820Y-127654502D01*
X160430518Y-127690812D01*
X160555000Y-127703072D01*
X161119250Y-127700000D01*
X161278000Y-127541250D01*
X161278000Y-126342000D01*
X161532000Y-126342000D01*
X161532000Y-127541250D01*
X161690750Y-127700000D01*
X162255000Y-127703072D01*
X162379482Y-127690812D01*
X162499180Y-127654502D01*
X162609494Y-127595537D01*
X162706185Y-127516185D01*
X162785537Y-127419494D01*
X162844502Y-127309180D01*
X162880812Y-127189482D01*
X162893072Y-127065000D01*
X162890000Y-126500750D01*
X162731250Y-126342000D01*
X161532000Y-126342000D01*
X161278000Y-126342000D01*
X161258000Y-126342000D01*
X161258000Y-126088000D01*
X161278000Y-126088000D01*
X161278000Y-124888750D01*
X161532000Y-124888750D01*
X161532000Y-126088000D01*
X162731250Y-126088000D01*
X162890000Y-125929250D01*
X162893072Y-125365000D01*
X162880812Y-125240518D01*
X162844502Y-125120820D01*
X162785537Y-125010506D01*
X162706185Y-124913815D01*
X162609494Y-124834463D01*
X162499180Y-124775498D01*
X162379482Y-124739188D01*
X162255000Y-124726928D01*
X161690750Y-124730000D01*
X161532000Y-124888750D01*
X161278000Y-124888750D01*
X161119250Y-124730000D01*
X160555000Y-124726928D01*
X160430518Y-124739188D01*
X160310820Y-124775498D01*
X160200506Y-124834463D01*
X160103815Y-124913815D01*
X160024463Y-125010506D01*
X159965498Y-125120820D01*
X159944607Y-125189687D01*
X159920134Y-125159866D01*
X159694014Y-124974294D01*
X159436034Y-124836401D01*
X159156111Y-124751487D01*
X158937950Y-124730000D01*
X158792050Y-124730000D01*
X158573889Y-124751487D01*
X158293966Y-124836401D01*
X158035986Y-124974294D01*
X157809866Y-125159866D01*
X157624294Y-125385986D01*
X157595000Y-125440791D01*
X157565706Y-125385986D01*
X157380134Y-125159866D01*
X157154014Y-124974294D01*
X156896034Y-124836401D01*
X156616111Y-124751487D01*
X156397950Y-124730000D01*
X156252050Y-124730000D01*
X156033889Y-124751487D01*
X155753966Y-124836401D01*
X155495986Y-124974294D01*
X155269866Y-125159866D01*
X155084294Y-125385986D01*
X155055000Y-125440791D01*
X155025706Y-125385986D01*
X154840134Y-125159866D01*
X154614014Y-124974294D01*
X154356034Y-124836401D01*
X154076111Y-124751487D01*
X153857950Y-124730000D01*
X153712050Y-124730000D01*
X153493889Y-124751487D01*
X153213966Y-124836401D01*
X152955986Y-124974294D01*
X152729866Y-125159866D01*
X152544294Y-125385986D01*
X152515000Y-125440791D01*
X152485706Y-125385986D01*
X152300134Y-125159866D01*
X152074014Y-124974294D01*
X151816034Y-124836401D01*
X151536111Y-124751487D01*
X151317950Y-124730000D01*
X151172050Y-124730000D01*
X150953889Y-124751487D01*
X150673966Y-124836401D01*
X150415986Y-124974294D01*
X150189866Y-125159866D01*
X150004294Y-125385986D01*
X149975000Y-125440791D01*
X149945706Y-125385986D01*
X149760134Y-125159866D01*
X149534014Y-124974294D01*
X149276034Y-124836401D01*
X148996111Y-124751487D01*
X148777950Y-124730000D01*
X148632050Y-124730000D01*
X148413889Y-124751487D01*
X148133966Y-124836401D01*
X147875986Y-124974294D01*
X147649866Y-125159866D01*
X147464294Y-125385986D01*
X147326401Y-125643966D01*
X147241487Y-125923889D01*
X147212815Y-126215000D01*
X121117289Y-126215000D01*
X125767959Y-121564330D01*
X125803644Y-121535044D01*
X125920486Y-121392672D01*
X126007307Y-121230240D01*
X126036198Y-121135000D01*
X126060772Y-121053992D01*
X126078824Y-120870700D01*
X126074300Y-120824765D01*
X126074300Y-119207702D01*
X134591903Y-119207702D01*
X134663486Y-119451671D01*
X134918996Y-119572571D01*
X135193184Y-119641300D01*
X135475512Y-119655217D01*
X135755130Y-119613787D01*
X136021292Y-119518603D01*
X136146514Y-119451671D01*
X136218097Y-119207702D01*
X135405000Y-118394605D01*
X134591903Y-119207702D01*
X126074300Y-119207702D01*
X126074300Y-117470300D01*
X134179188Y-117470300D01*
X134168329Y-117473486D01*
X134047429Y-117728996D01*
X133978700Y-118003184D01*
X133964783Y-118285512D01*
X134006213Y-118565130D01*
X134101397Y-118831292D01*
X134168329Y-118956514D01*
X134412298Y-119028097D01*
X135225395Y-118215000D01*
X135211253Y-118200858D01*
X135390858Y-118021253D01*
X135405000Y-118035395D01*
X135419143Y-118021253D01*
X135598748Y-118200858D01*
X135584605Y-118215000D01*
X136397702Y-119028097D01*
X136641671Y-118956514D01*
X136655324Y-118927659D01*
X136790363Y-119129759D01*
X136990241Y-119329637D01*
X137225273Y-119486680D01*
X137486426Y-119594853D01*
X137763665Y-119650000D01*
X138046335Y-119650000D01*
X138323574Y-119594853D01*
X138584727Y-119486680D01*
X138819759Y-119329637D01*
X139019637Y-119129759D01*
X139176680Y-118894727D01*
X139284853Y-118633574D01*
X139340000Y-118356335D01*
X139340000Y-118073665D01*
X139284853Y-117796426D01*
X139176680Y-117535273D01*
X139133267Y-117470300D01*
X161498468Y-117470300D01*
X161544400Y-117474824D01*
X161590332Y-117470300D01*
X161727692Y-117456771D01*
X161903940Y-117403307D01*
X162066372Y-117316486D01*
X162208744Y-117199644D01*
X162238030Y-117163959D01*
X163137469Y-116264520D01*
X163343899Y-116433932D01*
X163593192Y-116567182D01*
X163863691Y-116649236D01*
X164074508Y-116670000D01*
X164215492Y-116670000D01*
X164426309Y-116649236D01*
X164696808Y-116567182D01*
X164946101Y-116433932D01*
X165164608Y-116254608D01*
X165234044Y-116170000D01*
X165399368Y-116170000D01*
X165445300Y-116174524D01*
X165491232Y-116170000D01*
X165628592Y-116156471D01*
X165649924Y-116150000D01*
X166310604Y-116150000D01*
X166490241Y-116329637D01*
X166725273Y-116486680D01*
X166986426Y-116594853D01*
X167263665Y-116650000D01*
X167546335Y-116650000D01*
X167823574Y-116594853D01*
X168084727Y-116486680D01*
X168319759Y-116329637D01*
X168519637Y-116129759D01*
X168676680Y-115894727D01*
X168784853Y-115633574D01*
X168840000Y-115356335D01*
X168840000Y-115073665D01*
X168784853Y-114796426D01*
X168676680Y-114535273D01*
X168519637Y-114300241D01*
X168319759Y-114100363D01*
X168119131Y-113966308D01*
X168146514Y-113951671D01*
X168218097Y-113707702D01*
X167405000Y-112894605D01*
X166591903Y-113707702D01*
X166663486Y-113951671D01*
X166692341Y-113965324D01*
X166490241Y-114100363D01*
X166310604Y-114280000D01*
X165511231Y-114280000D01*
X165465299Y-114275476D01*
X165309726Y-114290799D01*
X165282008Y-114293529D01*
X165260676Y-114300000D01*
X165234044Y-114300000D01*
X165164608Y-114215392D01*
X164946101Y-114036068D01*
X164808318Y-113962421D01*
X165000131Y-113847385D01*
X165208519Y-113658414D01*
X165376037Y-113432420D01*
X165496246Y-113178087D01*
X165536904Y-113044039D01*
X165414915Y-112822000D01*
X164272000Y-112822000D01*
X164272000Y-112842000D01*
X164018000Y-112842000D01*
X164018000Y-112822000D01*
X162875085Y-112822000D01*
X162753096Y-113044039D01*
X162793754Y-113178087D01*
X162913963Y-113432420D01*
X163081481Y-113658414D01*
X163289869Y-113847385D01*
X163481682Y-113962421D01*
X163343899Y-114036068D01*
X163125392Y-114215392D01*
X163055956Y-114300000D01*
X162890632Y-114300000D01*
X162844700Y-114295476D01*
X162798768Y-114300000D01*
X162661408Y-114313529D01*
X162485160Y-114366993D01*
X162322728Y-114453814D01*
X162180356Y-114570656D01*
X162151070Y-114606341D01*
X161157111Y-115600300D01*
X150293758Y-115600300D01*
X150319236Y-115516309D01*
X150346943Y-115235000D01*
X150319236Y-114953691D01*
X150237182Y-114683192D01*
X150103932Y-114433899D01*
X150028688Y-114342214D01*
X150541303Y-113829599D01*
X150570301Y-113805801D01*
X150665274Y-113690076D01*
X150735846Y-113558047D01*
X150779303Y-113414786D01*
X150790300Y-113303133D01*
X150790300Y-113303123D01*
X150793976Y-113265800D01*
X150790300Y-113228477D01*
X150790300Y-112785512D01*
X165964783Y-112785512D01*
X166006213Y-113065130D01*
X166101397Y-113331292D01*
X166168329Y-113456514D01*
X166412298Y-113528097D01*
X167225395Y-112715000D01*
X167584605Y-112715000D01*
X168397702Y-113528097D01*
X168641671Y-113456514D01*
X168762571Y-113201004D01*
X168831300Y-112926816D01*
X168845217Y-112644488D01*
X168803787Y-112364870D01*
X168708603Y-112098708D01*
X168641671Y-111973486D01*
X168397702Y-111901903D01*
X167584605Y-112715000D01*
X167225395Y-112715000D01*
X166412298Y-111901903D01*
X166168329Y-111973486D01*
X166047429Y-112228996D01*
X165978700Y-112503184D01*
X165964783Y-112785512D01*
X150790300Y-112785512D01*
X150790300Y-112265833D01*
X150793977Y-112228500D01*
X150779303Y-112079514D01*
X150735846Y-111936253D01*
X150665274Y-111804224D01*
X150594099Y-111717497D01*
X150570301Y-111688499D01*
X150541304Y-111664702D01*
X149981674Y-111105073D01*
X150103932Y-110956101D01*
X150237182Y-110706808D01*
X150319236Y-110436309D01*
X150346943Y-110155000D01*
X150319236Y-109873691D01*
X150237182Y-109603192D01*
X150103932Y-109353899D01*
X149924608Y-109135392D01*
X149706101Y-108956068D01*
X149573142Y-108885000D01*
X149706101Y-108813932D01*
X149924608Y-108634608D01*
X150103932Y-108416101D01*
X150125901Y-108375000D01*
X160164899Y-108375000D01*
X162455905Y-110666008D01*
X162479699Y-110695001D01*
X162508692Y-110718795D01*
X162508696Y-110718799D01*
X162579385Y-110776811D01*
X162595424Y-110789974D01*
X162727453Y-110860546D01*
X162870714Y-110904003D01*
X162920861Y-110908942D01*
X162946068Y-110956101D01*
X163125392Y-111174608D01*
X163343899Y-111353932D01*
X163481682Y-111427579D01*
X163289869Y-111542615D01*
X163081481Y-111731586D01*
X162913963Y-111957580D01*
X162793754Y-112211913D01*
X162753096Y-112345961D01*
X162875085Y-112568000D01*
X164018000Y-112568000D01*
X164018000Y-112548000D01*
X164272000Y-112548000D01*
X164272000Y-112568000D01*
X165414915Y-112568000D01*
X165536904Y-112345961D01*
X165496246Y-112211913D01*
X165376037Y-111957580D01*
X165208519Y-111731586D01*
X165198277Y-111722298D01*
X166591903Y-111722298D01*
X167405000Y-112535395D01*
X168218097Y-111722298D01*
X168146514Y-111478329D01*
X167891004Y-111357429D01*
X167616816Y-111288700D01*
X167334488Y-111274783D01*
X167054870Y-111316213D01*
X166788708Y-111411397D01*
X166663486Y-111478329D01*
X166591903Y-111722298D01*
X165198277Y-111722298D01*
X165000131Y-111542615D01*
X164808318Y-111427579D01*
X164946101Y-111353932D01*
X165164608Y-111174608D01*
X165343932Y-110956101D01*
X165477182Y-110706808D01*
X165559236Y-110436309D01*
X165586943Y-110155000D01*
X165559236Y-109873691D01*
X165477182Y-109603192D01*
X165343932Y-109353899D01*
X165164608Y-109135392D01*
X164946101Y-108956068D01*
X164813142Y-108885000D01*
X164946101Y-108813932D01*
X165164608Y-108634608D01*
X165343932Y-108416101D01*
X165477182Y-108166808D01*
X165559236Y-107896309D01*
X165586943Y-107615000D01*
X165559236Y-107333691D01*
X165545708Y-107289094D01*
X166251303Y-106583499D01*
X166280301Y-106559701D01*
X166326682Y-106503186D01*
X166375274Y-106443977D01*
X166445846Y-106311947D01*
X166446301Y-106310446D01*
X166489303Y-106168686D01*
X166500300Y-106057033D01*
X166500300Y-106057023D01*
X166503976Y-106019700D01*
X166500300Y-105982377D01*
X166500300Y-100016325D01*
X166503976Y-99979000D01*
X166500300Y-99941675D01*
X166500300Y-99941667D01*
X166489303Y-99830014D01*
X166445846Y-99686753D01*
X166375274Y-99554724D01*
X166280301Y-99438999D01*
X166251304Y-99415202D01*
X165230464Y-98394363D01*
X165343932Y-98256101D01*
X165477182Y-98006808D01*
X165559236Y-97736309D01*
X165586943Y-97455000D01*
X165559236Y-97173691D01*
X165477182Y-96903192D01*
X165343932Y-96653899D01*
X165164608Y-96435392D01*
X164946101Y-96256068D01*
X164813142Y-96185000D01*
X164946101Y-96113932D01*
X165164608Y-95934608D01*
X165343932Y-95716101D01*
X165477182Y-95466808D01*
X165559236Y-95196309D01*
X165586943Y-94915000D01*
X165559236Y-94633691D01*
X165477182Y-94363192D01*
X165343932Y-94113899D01*
X165164608Y-93895392D01*
X164946101Y-93716068D01*
X164813142Y-93645000D01*
X164946101Y-93573932D01*
X165164608Y-93394608D01*
X165343932Y-93176101D01*
X165477182Y-92926808D01*
X165559236Y-92656309D01*
X165586943Y-92375000D01*
X165559236Y-92093691D01*
X165477182Y-91823192D01*
X165343932Y-91573899D01*
X165268643Y-91482159D01*
X166720709Y-90030094D01*
X166749701Y-90006301D01*
X166773495Y-89977308D01*
X166773499Y-89977304D01*
X166844673Y-89890577D01*
X166844674Y-89890576D01*
X166915246Y-89758547D01*
X166958703Y-89615286D01*
X166969700Y-89503633D01*
X166969700Y-89503624D01*
X166973376Y-89466301D01*
X166969700Y-89428978D01*
X166969700Y-78575922D01*
X166973376Y-78538599D01*
X166969700Y-78501276D01*
X166969700Y-78501267D01*
X166958703Y-78389614D01*
X166915246Y-78246353D01*
X166844674Y-78114324D01*
X166816527Y-78080027D01*
X166773499Y-78027596D01*
X166773495Y-78027592D01*
X166749701Y-77998599D01*
X166720708Y-77974805D01*
X155118904Y-66373003D01*
X155095101Y-66343999D01*
X154979376Y-66249026D01*
X154847347Y-66178454D01*
X154704086Y-66134997D01*
X154592433Y-66124000D01*
X154592422Y-66124000D01*
X154555100Y-66120324D01*
X154517778Y-66124000D01*
X116007022Y-66124000D01*
X115969699Y-66120324D01*
X115932376Y-66124000D01*
X115932367Y-66124000D01*
X115820714Y-66134997D01*
X115677453Y-66178454D01*
X115545424Y-66249026D01*
X115545422Y-66249027D01*
X115545423Y-66249027D01*
X115458696Y-66320201D01*
X115458692Y-66320205D01*
X115429699Y-66343999D01*
X115405905Y-66372992D01*
X113964680Y-67814219D01*
X113849014Y-67719294D01*
X113591034Y-67581401D01*
X113311111Y-67496487D01*
X113092950Y-67475000D01*
X112947050Y-67475000D01*
X112728889Y-67496487D01*
X112448966Y-67581401D01*
X112190986Y-67719294D01*
X111964866Y-67904866D01*
X111779294Y-68130986D01*
X111750000Y-68185791D01*
X111720706Y-68130986D01*
X111535134Y-67904866D01*
X111309014Y-67719294D01*
X111051034Y-67581401D01*
X110771111Y-67496487D01*
X110552950Y-67475000D01*
X110407050Y-67475000D01*
X110188889Y-67496487D01*
X109908966Y-67581401D01*
X109650986Y-67719294D01*
X109424866Y-67904866D01*
X109239294Y-68130986D01*
X109210000Y-68185791D01*
X109180706Y-68130986D01*
X108995134Y-67904866D01*
X108769014Y-67719294D01*
X108511034Y-67581401D01*
X108231111Y-67496487D01*
X108012950Y-67475000D01*
X107867050Y-67475000D01*
X107648889Y-67496487D01*
X107368966Y-67581401D01*
X107110986Y-67719294D01*
X106884866Y-67904866D01*
X106699294Y-68130986D01*
X106670000Y-68185791D01*
X106640706Y-68130986D01*
X106455134Y-67904866D01*
X106229014Y-67719294D01*
X105971034Y-67581401D01*
X105691111Y-67496487D01*
X105472950Y-67475000D01*
X105327050Y-67475000D01*
X105108889Y-67496487D01*
X104828966Y-67581401D01*
X104570986Y-67719294D01*
X104344866Y-67904866D01*
X104159294Y-68130986D01*
X104021401Y-68388966D01*
X103936487Y-68668889D01*
X103907815Y-68960000D01*
X103936487Y-69251111D01*
X104021401Y-69531034D01*
X104159294Y-69789014D01*
X104344866Y-70015134D01*
X104374687Y-70039607D01*
X104305820Y-70060498D01*
X104195506Y-70119463D01*
X104098815Y-70198815D01*
X104019463Y-70295506D01*
X103960498Y-70405820D01*
X103924188Y-70525518D01*
X103911928Y-70650000D01*
X103911928Y-72350000D01*
X103924188Y-72474482D01*
X103960498Y-72594180D01*
X104019463Y-72704494D01*
X104098815Y-72801185D01*
X104195506Y-72880537D01*
X104305820Y-72939502D01*
X104425518Y-72975812D01*
X104550000Y-72988072D01*
X106250000Y-72988072D01*
X106374482Y-72975812D01*
X106494180Y-72939502D01*
X106604494Y-72880537D01*
X106701185Y-72801185D01*
X106780537Y-72704494D01*
X106839502Y-72594180D01*
X106860393Y-72525313D01*
X106884866Y-72555134D01*
X107110986Y-72740706D01*
X107368966Y-72878599D01*
X107648889Y-72963513D01*
X107867050Y-72985000D01*
X108012950Y-72985000D01*
X108231111Y-72963513D01*
X108511034Y-72878599D01*
X108769014Y-72740706D01*
X108995134Y-72555134D01*
X109180706Y-72329014D01*
X109210000Y-72274209D01*
X109239294Y-72329014D01*
X109424866Y-72555134D01*
X109650986Y-72740706D01*
X109908966Y-72878599D01*
X110188889Y-72963513D01*
X110407050Y-72985000D01*
X110552950Y-72985000D01*
X110771111Y-72963513D01*
X111051034Y-72878599D01*
X111309014Y-72740706D01*
X111535134Y-72555134D01*
X111720706Y-72329014D01*
X111750000Y-72274209D01*
X111779294Y-72329014D01*
X111964866Y-72555134D01*
X112190986Y-72740706D01*
X112448966Y-72878599D01*
X112728889Y-72963513D01*
X112947050Y-72985000D01*
X113092950Y-72985000D01*
X113311111Y-72963513D01*
X113591034Y-72878599D01*
X113849014Y-72740706D01*
X114075134Y-72555134D01*
X114260706Y-72329014D01*
X114290000Y-72274209D01*
X114319294Y-72329014D01*
X114504866Y-72555134D01*
X114730986Y-72740706D01*
X114988966Y-72878599D01*
X115268889Y-72963513D01*
X115487050Y-72985000D01*
X115632950Y-72985000D01*
X115851111Y-72963513D01*
X116131034Y-72878599D01*
X116389014Y-72740706D01*
X116615134Y-72555134D01*
X116800706Y-72329014D01*
X116830000Y-72274209D01*
X116859294Y-72329014D01*
X117044866Y-72555134D01*
X117270986Y-72740706D01*
X117346755Y-72781205D01*
X117350998Y-72824286D01*
X117364180Y-72867742D01*
X117394454Y-72967546D01*
X117465026Y-73099576D01*
X117496434Y-73137846D01*
X117510300Y-73154741D01*
X117510300Y-77326242D01*
X117426309Y-77300764D01*
X117215492Y-77280000D01*
X117074508Y-77280000D01*
X116863691Y-77300764D01*
X116593192Y-77382818D01*
X116343899Y-77516068D01*
X116125392Y-77695392D01*
X115946068Y-77913899D01*
X115920861Y-77961058D01*
X115870714Y-77965997D01*
X115727453Y-78009454D01*
X115595424Y-78080026D01*
X115479699Y-78174999D01*
X115455901Y-78203997D01*
X106895199Y-86764700D01*
X103274223Y-86764700D01*
X103319236Y-86616309D01*
X103346943Y-86335000D01*
X103319236Y-86053691D01*
X103237182Y-85783192D01*
X103103932Y-85533899D01*
X102924608Y-85315392D01*
X102706101Y-85136068D01*
X102573142Y-85065000D01*
X102706101Y-84993932D01*
X102924608Y-84814608D01*
X103103932Y-84596101D01*
X103237182Y-84346808D01*
X103319236Y-84076309D01*
X103346943Y-83795000D01*
X103319236Y-83513691D01*
X103237182Y-83243192D01*
X103103932Y-82993899D01*
X102924608Y-82775392D01*
X102706101Y-82596068D01*
X102573142Y-82525000D01*
X102706101Y-82453932D01*
X102924608Y-82274608D01*
X103103932Y-82056101D01*
X103237182Y-81806808D01*
X103319236Y-81536309D01*
X103346943Y-81255000D01*
X103319236Y-80973691D01*
X103237182Y-80703192D01*
X103103932Y-80453899D01*
X102924608Y-80235392D01*
X102811518Y-80142581D01*
X102829482Y-80140812D01*
X102949180Y-80104502D01*
X103059494Y-80045537D01*
X103156185Y-79966185D01*
X103235537Y-79869494D01*
X103294502Y-79759180D01*
X103330812Y-79639482D01*
X103343072Y-79515000D01*
X103340000Y-79000750D01*
X103181250Y-78842000D01*
X102032000Y-78842000D01*
X102032000Y-78862000D01*
X101778000Y-78862000D01*
X101778000Y-78842000D01*
X100628750Y-78842000D01*
X100470000Y-79000750D01*
X100466928Y-79515000D01*
X100479188Y-79639482D01*
X100515498Y-79759180D01*
X100574463Y-79869494D01*
X100653815Y-79966185D01*
X100750506Y-80045537D01*
X100860820Y-80104502D01*
X100980518Y-80140812D01*
X100998482Y-80142581D01*
X100885392Y-80235392D01*
X100862630Y-80263128D01*
X98514502Y-77915000D01*
X100466928Y-77915000D01*
X100470000Y-78429250D01*
X100628750Y-78588000D01*
X101778000Y-78588000D01*
X101778000Y-77438750D01*
X102032000Y-77438750D01*
X102032000Y-78588000D01*
X103181250Y-78588000D01*
X103340000Y-78429250D01*
X103343072Y-77915000D01*
X103330812Y-77790518D01*
X103294502Y-77670820D01*
X103235537Y-77560506D01*
X103156185Y-77463815D01*
X103059494Y-77384463D01*
X102949180Y-77325498D01*
X102829482Y-77289188D01*
X102705000Y-77276928D01*
X102190750Y-77280000D01*
X102032000Y-77438750D01*
X101778000Y-77438750D01*
X101619250Y-77280000D01*
X101105000Y-77276928D01*
X100980518Y-77289188D01*
X100860820Y-77325498D01*
X100750506Y-77384463D01*
X100653815Y-77463815D01*
X100574463Y-77560506D01*
X100515498Y-77670820D01*
X100479188Y-77790518D01*
X100466928Y-77915000D01*
X98514502Y-77915000D01*
X97263804Y-76664303D01*
X97240001Y-76635299D01*
X97124276Y-76540326D01*
X96992247Y-76469754D01*
X96848986Y-76426297D01*
X96737333Y-76415300D01*
X96737322Y-76415300D01*
X96700000Y-76411624D01*
X96662678Y-76415300D01*
X90465841Y-76415300D01*
X90503513Y-76291111D01*
X90532185Y-76000000D01*
X90503513Y-75708889D01*
X90418599Y-75428966D01*
X90280706Y-75170986D01*
X90095134Y-74944866D01*
X89869014Y-74759294D01*
X89611034Y-74621401D01*
X89331111Y-74536487D01*
X89112950Y-74515000D01*
X88967050Y-74515000D01*
X88748889Y-74536487D01*
X88468966Y-74621401D01*
X88210986Y-74759294D01*
X87984866Y-74944866D01*
X87960393Y-74974687D01*
X87939502Y-74905820D01*
X87880537Y-74795506D01*
X87801185Y-74698815D01*
X87704494Y-74619463D01*
X87594180Y-74560498D01*
X87474482Y-74524188D01*
X87350000Y-74511928D01*
X85650000Y-74511928D01*
X85525518Y-74524188D01*
X85405820Y-74560498D01*
X85295506Y-74619463D01*
X85198815Y-74698815D01*
X85119463Y-74795506D01*
X85060498Y-74905820D01*
X85024188Y-75025518D01*
X85011928Y-75150000D01*
X85011928Y-76850000D01*
X85024188Y-76974482D01*
X85060498Y-77094180D01*
X85119463Y-77204494D01*
X85198815Y-77301185D01*
X85295506Y-77380537D01*
X85405820Y-77439502D01*
X85474687Y-77460393D01*
X85444866Y-77484866D01*
X85259294Y-77710986D01*
X85121401Y-77968966D01*
X85036487Y-78248889D01*
X85007815Y-78540000D01*
X85036487Y-78831111D01*
X85121401Y-79111034D01*
X85259294Y-79369014D01*
X85444866Y-79595134D01*
X85670986Y-79780706D01*
X85725791Y-79810000D01*
X85670986Y-79839294D01*
X85444866Y-80024866D01*
X85259294Y-80250986D01*
X85121401Y-80508966D01*
X85036487Y-80788889D01*
X85007815Y-81080000D01*
X85036487Y-81371111D01*
X85121401Y-81651034D01*
X85259294Y-81909014D01*
X85444866Y-82135134D01*
X85670986Y-82320706D01*
X85725791Y-82350000D01*
X85670986Y-82379294D01*
X85444866Y-82564866D01*
X85259294Y-82790986D01*
X85121401Y-83048966D01*
X85036487Y-83328889D01*
X85007815Y-83620000D01*
X85036487Y-83911111D01*
X85121401Y-84191034D01*
X85259294Y-84449014D01*
X85444866Y-84675134D01*
X85670986Y-84860706D01*
X85725791Y-84890000D01*
X85670986Y-84919294D01*
X85444866Y-85104866D01*
X85259294Y-85330986D01*
X85121401Y-85588966D01*
X85036487Y-85868889D01*
X85007815Y-86160000D01*
X85036487Y-86451111D01*
X85121401Y-86731034D01*
X85259294Y-86989014D01*
X85444866Y-87215134D01*
X85670986Y-87400706D01*
X85725791Y-87430000D01*
X85670986Y-87459294D01*
X85444866Y-87644866D01*
X85259294Y-87870986D01*
X85121401Y-88128966D01*
X85036487Y-88408889D01*
X85007815Y-88700000D01*
X85036487Y-88991111D01*
X85121401Y-89271034D01*
X85259294Y-89529014D01*
X85444866Y-89755134D01*
X85670986Y-89940706D01*
X85725791Y-89970000D01*
X85670986Y-89999294D01*
X85444866Y-90184866D01*
X85259294Y-90410986D01*
X85121401Y-90668966D01*
X85036487Y-90948889D01*
X85007815Y-91240000D01*
X85036487Y-91531111D01*
X85121401Y-91811034D01*
X85259294Y-92069014D01*
X85444866Y-92295134D01*
X85460251Y-92307760D01*
X84520936Y-93247075D01*
X84485257Y-93276356D01*
X84368415Y-93418728D01*
X84291447Y-93562727D01*
X84281594Y-93581160D01*
X84228129Y-93757409D01*
X84210076Y-93940700D01*
X80660000Y-93940700D01*
X80660000Y-64279872D01*
X83265000Y-64279872D01*
X83265000Y-64720128D01*
X83350890Y-65151925D01*
X83519369Y-65558669D01*
X83763962Y-65924729D01*
X84075271Y-66236038D01*
X84441331Y-66480631D01*
X84848075Y-66649110D01*
X85279872Y-66735000D01*
X85720128Y-66735000D01*
X86151925Y-66649110D01*
X86558669Y-66480631D01*
X86924729Y-66236038D01*
X87236038Y-65924729D01*
X87480631Y-65558669D01*
X87649110Y-65151925D01*
X87735000Y-64720128D01*
X87735000Y-64279872D01*
X172265000Y-64279872D01*
X172265000Y-64720128D01*
X172350890Y-65151925D01*
X172519369Y-65558669D01*
X172763962Y-65924729D01*
X173075271Y-66236038D01*
X173441331Y-66480631D01*
X173848075Y-66649110D01*
X174279872Y-66735000D01*
X174720128Y-66735000D01*
X175151925Y-66649110D01*
X175558669Y-66480631D01*
X175924729Y-66236038D01*
X176236038Y-65924729D01*
X176480631Y-65558669D01*
X176649110Y-65151925D01*
X176735000Y-64720128D01*
X176735000Y-64279872D01*
X176649110Y-63848075D01*
X176480631Y-63441331D01*
X176236038Y-63075271D01*
X175924729Y-62763962D01*
X175558669Y-62519369D01*
X175151925Y-62350890D01*
X174720128Y-62265000D01*
X174279872Y-62265000D01*
X173848075Y-62350890D01*
X173441331Y-62519369D01*
X173075271Y-62763962D01*
X172763962Y-63075271D01*
X172519369Y-63441331D01*
X172350890Y-63848075D01*
X172265000Y-64279872D01*
X87735000Y-64279872D01*
X87649110Y-63848075D01*
X87480631Y-63441331D01*
X87236038Y-63075271D01*
X86924729Y-62763962D01*
X86558669Y-62519369D01*
X86151925Y-62350890D01*
X85720128Y-62265000D01*
X85279872Y-62265000D01*
X84848075Y-62350890D01*
X84441331Y-62519369D01*
X84075271Y-62763962D01*
X83763962Y-63075271D01*
X83519369Y-63441331D01*
X83350890Y-63848075D01*
X83265000Y-64279872D01*
X80660000Y-64279872D01*
X80660000Y-60660000D01*
X179340000Y-60660000D01*
X179340001Y-134340000D01*
G36*
X115730764Y-116533691D02*
G01*
X115703057Y-116815000D01*
X115730764Y-117096309D01*
X115812818Y-117366808D01*
X115946068Y-117616101D01*
X116125392Y-117834608D01*
X116343899Y-118013932D01*
X116476858Y-118085000D01*
X116343899Y-118156068D01*
X116125392Y-118335392D01*
X115946068Y-118553899D01*
X115812818Y-118803192D01*
X115730764Y-119073691D01*
X115703057Y-119355000D01*
X115730764Y-119636309D01*
X115812818Y-119906808D01*
X115946068Y-120156101D01*
X116125392Y-120374608D01*
X116343899Y-120553932D01*
X116476858Y-120625000D01*
X116343899Y-120696068D01*
X116125392Y-120875392D01*
X115946068Y-121093899D01*
X115812818Y-121343192D01*
X115730764Y-121613691D01*
X115703057Y-121895000D01*
X115730764Y-122176309D01*
X115812818Y-122446808D01*
X115946068Y-122696101D01*
X116125392Y-122914608D01*
X116343899Y-123093932D01*
X116476858Y-123165000D01*
X116343899Y-123236068D01*
X116125392Y-123415392D01*
X115946068Y-123633899D01*
X115812818Y-123883192D01*
X115730764Y-124153691D01*
X115703057Y-124435000D01*
X115730764Y-124716309D01*
X115812818Y-124986808D01*
X115946068Y-125236101D01*
X116125392Y-125454608D01*
X116343899Y-125633932D01*
X116476858Y-125705000D01*
X116343899Y-125776068D01*
X116125392Y-125955392D01*
X115946068Y-126173899D01*
X115812818Y-126423192D01*
X115730764Y-126693691D01*
X115703057Y-126975000D01*
X115730764Y-127256309D01*
X115756242Y-127340300D01*
X104892889Y-127340300D01*
X103898930Y-126346341D01*
X103869644Y-126310656D01*
X103727272Y-126193814D01*
X103564840Y-126106993D01*
X103388592Y-126053529D01*
X103251232Y-126040000D01*
X103205300Y-126035476D01*
X103159368Y-126040000D01*
X102994044Y-126040000D01*
X102924608Y-125955392D01*
X102706101Y-125776068D01*
X102573142Y-125705000D01*
X102706101Y-125633932D01*
X102924608Y-125454608D01*
X103103932Y-125236101D01*
X103237182Y-124986808D01*
X103319236Y-124716309D01*
X103346943Y-124435000D01*
X103319236Y-124153691D01*
X103237182Y-123883192D01*
X103103932Y-123633899D01*
X102924608Y-123415392D01*
X102706101Y-123236068D01*
X102573142Y-123165000D01*
X102706101Y-123093932D01*
X102924608Y-122914608D01*
X103103932Y-122696101D01*
X103237182Y-122446808D01*
X103319236Y-122176309D01*
X103346943Y-121895000D01*
X103319236Y-121613691D01*
X103237182Y-121343192D01*
X103103932Y-121093899D01*
X102924608Y-120875392D01*
X102706101Y-120696068D01*
X102573142Y-120625000D01*
X102706101Y-120553932D01*
X102924608Y-120374608D01*
X103103932Y-120156101D01*
X103237182Y-119906808D01*
X103319236Y-119636309D01*
X103346943Y-119355000D01*
X103319236Y-119073691D01*
X103237182Y-118803192D01*
X103103932Y-118553899D01*
X102924608Y-118335392D01*
X102706101Y-118156068D01*
X102573142Y-118085000D01*
X102706101Y-118013932D01*
X102924608Y-117834608D01*
X103103932Y-117616101D01*
X103129139Y-117568942D01*
X103179286Y-117564003D01*
X103322547Y-117520546D01*
X103454576Y-117449974D01*
X103570301Y-117355001D01*
X103594104Y-117325998D01*
X104470402Y-116449700D01*
X115756242Y-116449700D01*
X115730764Y-116533691D01*
X115730764Y-116533691D01*
G37*
X115730764Y-116533691D02*
X115703057Y-116815000D01*
X115730764Y-117096309D01*
X115812818Y-117366808D01*
X115946068Y-117616101D01*
X116125392Y-117834608D01*
X116343899Y-118013932D01*
X116476858Y-118085000D01*
X116343899Y-118156068D01*
X116125392Y-118335392D01*
X115946068Y-118553899D01*
X115812818Y-118803192D01*
X115730764Y-119073691D01*
X115703057Y-119355000D01*
X115730764Y-119636309D01*
X115812818Y-119906808D01*
X115946068Y-120156101D01*
X116125392Y-120374608D01*
X116343899Y-120553932D01*
X116476858Y-120625000D01*
X116343899Y-120696068D01*
X116125392Y-120875392D01*
X115946068Y-121093899D01*
X115812818Y-121343192D01*
X115730764Y-121613691D01*
X115703057Y-121895000D01*
X115730764Y-122176309D01*
X115812818Y-122446808D01*
X115946068Y-122696101D01*
X116125392Y-122914608D01*
X116343899Y-123093932D01*
X116476858Y-123165000D01*
X116343899Y-123236068D01*
X116125392Y-123415392D01*
X115946068Y-123633899D01*
X115812818Y-123883192D01*
X115730764Y-124153691D01*
X115703057Y-124435000D01*
X115730764Y-124716309D01*
X115812818Y-124986808D01*
X115946068Y-125236101D01*
X116125392Y-125454608D01*
X116343899Y-125633932D01*
X116476858Y-125705000D01*
X116343899Y-125776068D01*
X116125392Y-125955392D01*
X115946068Y-126173899D01*
X115812818Y-126423192D01*
X115730764Y-126693691D01*
X115703057Y-126975000D01*
X115730764Y-127256309D01*
X115756242Y-127340300D01*
X104892889Y-127340300D01*
X103898930Y-126346341D01*
X103869644Y-126310656D01*
X103727272Y-126193814D01*
X103564840Y-126106993D01*
X103388592Y-126053529D01*
X103251232Y-126040000D01*
X103205300Y-126035476D01*
X103159368Y-126040000D01*
X102994044Y-126040000D01*
X102924608Y-125955392D01*
X102706101Y-125776068D01*
X102573142Y-125705000D01*
X102706101Y-125633932D01*
X102924608Y-125454608D01*
X103103932Y-125236101D01*
X103237182Y-124986808D01*
X103319236Y-124716309D01*
X103346943Y-124435000D01*
X103319236Y-124153691D01*
X103237182Y-123883192D01*
X103103932Y-123633899D01*
X102924608Y-123415392D01*
X102706101Y-123236068D01*
X102573142Y-123165000D01*
X102706101Y-123093932D01*
X102924608Y-122914608D01*
X103103932Y-122696101D01*
X103237182Y-122446808D01*
X103319236Y-122176309D01*
X103346943Y-121895000D01*
X103319236Y-121613691D01*
X103237182Y-121343192D01*
X103103932Y-121093899D01*
X102924608Y-120875392D01*
X102706101Y-120696068D01*
X102573142Y-120625000D01*
X102706101Y-120553932D01*
X102924608Y-120374608D01*
X103103932Y-120156101D01*
X103237182Y-119906808D01*
X103319236Y-119636309D01*
X103346943Y-119355000D01*
X103319236Y-119073691D01*
X103237182Y-118803192D01*
X103103932Y-118553899D01*
X102924608Y-118335392D01*
X102706101Y-118156068D01*
X102573142Y-118085000D01*
X102706101Y-118013932D01*
X102924608Y-117834608D01*
X103103932Y-117616101D01*
X103129139Y-117568942D01*
X103179286Y-117564003D01*
X103322547Y-117520546D01*
X103454576Y-117449974D01*
X103570301Y-117355001D01*
X103594104Y-117325998D01*
X104470402Y-116449700D01*
X115756242Y-116449700D01*
X115730764Y-116533691D01*
G36*
X116125392Y-82274608D02*
G01*
X116343899Y-82453932D01*
X116406160Y-82487211D01*
X116395997Y-82520714D01*
X116391058Y-82570861D01*
X116343899Y-82596068D01*
X116125392Y-82775392D01*
X115946068Y-82993899D01*
X115812818Y-83243192D01*
X115730764Y-83513691D01*
X115703057Y-83795000D01*
X115730764Y-84076309D01*
X115812818Y-84346808D01*
X115946068Y-84596101D01*
X116021357Y-84687841D01*
X114559303Y-86149896D01*
X114530299Y-86173699D01*
X114481408Y-86233274D01*
X114435326Y-86289424D01*
X114364755Y-86421453D01*
X114364754Y-86421454D01*
X114321297Y-86564715D01*
X114310300Y-86676368D01*
X114310300Y-86676378D01*
X114306624Y-86713700D01*
X114310300Y-86751022D01*
X114310301Y-106167067D01*
X114306624Y-106204400D01*
X114310301Y-106241733D01*
X114321298Y-106353386D01*
X114328946Y-106378599D01*
X114364754Y-106496646D01*
X114435326Y-106628676D01*
X114502877Y-106710986D01*
X114530300Y-106744401D01*
X114559298Y-106768199D01*
X116053766Y-108262668D01*
X115946068Y-108393899D01*
X115812818Y-108643192D01*
X115730764Y-108913691D01*
X115703057Y-109195000D01*
X115730764Y-109476309D01*
X115812818Y-109746808D01*
X115946068Y-109996101D01*
X116125392Y-110214608D01*
X116343899Y-110393932D01*
X116476858Y-110465000D01*
X116343899Y-110536068D01*
X116125392Y-110715392D01*
X115946068Y-110933899D01*
X115812818Y-111183192D01*
X115730764Y-111453691D01*
X115703057Y-111735000D01*
X115730764Y-112016309D01*
X115812818Y-112286808D01*
X115946068Y-112536101D01*
X116125392Y-112754608D01*
X116343899Y-112933932D01*
X116476858Y-113005000D01*
X116343899Y-113076068D01*
X116125392Y-113255392D01*
X115946068Y-113473899D01*
X115812818Y-113723192D01*
X115730764Y-113993691D01*
X115703057Y-114275000D01*
X115730764Y-114556309D01*
X115812818Y-114826808D01*
X115867815Y-114929700D01*
X104192933Y-114929700D01*
X104155600Y-114926023D01*
X104118267Y-114929700D01*
X104006614Y-114940697D01*
X103863353Y-114984154D01*
X103731324Y-115054726D01*
X103615599Y-115149699D01*
X103591801Y-115178697D01*
X102947370Y-115823128D01*
X102924608Y-115795392D01*
X102706101Y-115616068D01*
X102573142Y-115545000D01*
X102706101Y-115473932D01*
X102924608Y-115294608D01*
X103103932Y-115076101D01*
X103237182Y-114826808D01*
X103319236Y-114556309D01*
X103346943Y-114275000D01*
X103319236Y-113993691D01*
X103237182Y-113723192D01*
X103103932Y-113473899D01*
X102924608Y-113255392D01*
X102706101Y-113076068D01*
X102573142Y-113005000D01*
X102706101Y-112933932D01*
X102924608Y-112754608D01*
X103103932Y-112536101D01*
X103237182Y-112286808D01*
X103319236Y-112016309D01*
X103346943Y-111735000D01*
X103319236Y-111453691D01*
X103237182Y-111183192D01*
X103103932Y-110933899D01*
X102924608Y-110715392D01*
X102706101Y-110536068D01*
X102573142Y-110465000D01*
X102706101Y-110393932D01*
X102924608Y-110214608D01*
X103103932Y-109996101D01*
X103237182Y-109746808D01*
X103319236Y-109476309D01*
X103346943Y-109195000D01*
X103319236Y-108913691D01*
X103237182Y-108643192D01*
X103103932Y-108393899D01*
X102924608Y-108175392D01*
X102706101Y-107996068D01*
X102573142Y-107925000D01*
X102706101Y-107853932D01*
X102924608Y-107674608D01*
X103103932Y-107456101D01*
X103237182Y-107206808D01*
X103319236Y-106936309D01*
X103346943Y-106655000D01*
X103319236Y-106373691D01*
X103237182Y-106103192D01*
X103103932Y-105853899D01*
X102924608Y-105635392D01*
X102706101Y-105456068D01*
X102573142Y-105385000D01*
X102706101Y-105313932D01*
X102924608Y-105134608D01*
X103103932Y-104916101D01*
X103237182Y-104666808D01*
X103319236Y-104396309D01*
X103346943Y-104115000D01*
X103319236Y-103833691D01*
X103237182Y-103563192D01*
X103103932Y-103313899D01*
X102924608Y-103095392D01*
X102706101Y-102916068D01*
X102573142Y-102845000D01*
X102706101Y-102773932D01*
X102924608Y-102594608D01*
X103103932Y-102376101D01*
X103237182Y-102126808D01*
X103319236Y-101856309D01*
X103346943Y-101575000D01*
X103319236Y-101293691D01*
X103237182Y-101023192D01*
X103103932Y-100773899D01*
X102924608Y-100555392D01*
X102706101Y-100376068D01*
X102573142Y-100305000D01*
X102706101Y-100233932D01*
X102924608Y-100054608D01*
X103103932Y-99836101D01*
X103237182Y-99586808D01*
X103319236Y-99316309D01*
X103346943Y-99035000D01*
X103319236Y-98753691D01*
X103237182Y-98483192D01*
X103103932Y-98233899D01*
X102924608Y-98015392D01*
X102706101Y-97836068D01*
X102573142Y-97765000D01*
X102706101Y-97693932D01*
X102924608Y-97514608D01*
X103103932Y-97296101D01*
X103237182Y-97046808D01*
X103319236Y-96776309D01*
X103346943Y-96495000D01*
X103319236Y-96213691D01*
X103237182Y-95943192D01*
X103103932Y-95693899D01*
X102924608Y-95475392D01*
X102706101Y-95296068D01*
X102573142Y-95225000D01*
X102706101Y-95153932D01*
X102924608Y-94974608D01*
X103103932Y-94756101D01*
X103237182Y-94506808D01*
X103319236Y-94236309D01*
X103346943Y-93955000D01*
X103319236Y-93673691D01*
X103237182Y-93403192D01*
X103103932Y-93153899D01*
X102924608Y-92935392D01*
X102706101Y-92756068D01*
X102573142Y-92685000D01*
X102706101Y-92613932D01*
X102924608Y-92434608D01*
X103103932Y-92216101D01*
X103237182Y-91966808D01*
X103319236Y-91696309D01*
X103346943Y-91415000D01*
X103319236Y-91133691D01*
X103237182Y-90863192D01*
X103202978Y-90799200D01*
X107198178Y-90799200D01*
X107235500Y-90802876D01*
X107272822Y-90799200D01*
X107272833Y-90799200D01*
X107384486Y-90788203D01*
X107527747Y-90744746D01*
X107659776Y-90674174D01*
X107775501Y-90579201D01*
X107799304Y-90550197D01*
X116102630Y-82246872D01*
X116125392Y-82274608D01*
X116125392Y-82274608D01*
G37*
X116125392Y-82274608D02*
X116343899Y-82453932D01*
X116406160Y-82487211D01*
X116395997Y-82520714D01*
X116391058Y-82570861D01*
X116343899Y-82596068D01*
X116125392Y-82775392D01*
X115946068Y-82993899D01*
X115812818Y-83243192D01*
X115730764Y-83513691D01*
X115703057Y-83795000D01*
X115730764Y-84076309D01*
X115812818Y-84346808D01*
X115946068Y-84596101D01*
X116021357Y-84687841D01*
X114559303Y-86149896D01*
X114530299Y-86173699D01*
X114481408Y-86233274D01*
X114435326Y-86289424D01*
X114364755Y-86421453D01*
X114364754Y-86421454D01*
X114321297Y-86564715D01*
X114310300Y-86676368D01*
X114310300Y-86676378D01*
X114306624Y-86713700D01*
X114310300Y-86751022D01*
X114310301Y-106167067D01*
X114306624Y-106204400D01*
X114310301Y-106241733D01*
X114321298Y-106353386D01*
X114328946Y-106378599D01*
X114364754Y-106496646D01*
X114435326Y-106628676D01*
X114502877Y-106710986D01*
X114530300Y-106744401D01*
X114559298Y-106768199D01*
X116053766Y-108262668D01*
X115946068Y-108393899D01*
X115812818Y-108643192D01*
X115730764Y-108913691D01*
X115703057Y-109195000D01*
X115730764Y-109476309D01*
X115812818Y-109746808D01*
X115946068Y-109996101D01*
X116125392Y-110214608D01*
X116343899Y-110393932D01*
X116476858Y-110465000D01*
X116343899Y-110536068D01*
X116125392Y-110715392D01*
X115946068Y-110933899D01*
X115812818Y-111183192D01*
X115730764Y-111453691D01*
X115703057Y-111735000D01*
X115730764Y-112016309D01*
X115812818Y-112286808D01*
X115946068Y-112536101D01*
X116125392Y-112754608D01*
X116343899Y-112933932D01*
X116476858Y-113005000D01*
X116343899Y-113076068D01*
X116125392Y-113255392D01*
X115946068Y-113473899D01*
X115812818Y-113723192D01*
X115730764Y-113993691D01*
X115703057Y-114275000D01*
X115730764Y-114556309D01*
X115812818Y-114826808D01*
X115867815Y-114929700D01*
X104192933Y-114929700D01*
X104155600Y-114926023D01*
X104118267Y-114929700D01*
X104006614Y-114940697D01*
X103863353Y-114984154D01*
X103731324Y-115054726D01*
X103615599Y-115149699D01*
X103591801Y-115178697D01*
X102947370Y-115823128D01*
X102924608Y-115795392D01*
X102706101Y-115616068D01*
X102573142Y-115545000D01*
X102706101Y-115473932D01*
X102924608Y-115294608D01*
X103103932Y-115076101D01*
X103237182Y-114826808D01*
X103319236Y-114556309D01*
X103346943Y-114275000D01*
X103319236Y-113993691D01*
X103237182Y-113723192D01*
X103103932Y-113473899D01*
X102924608Y-113255392D01*
X102706101Y-113076068D01*
X102573142Y-113005000D01*
X102706101Y-112933932D01*
X102924608Y-112754608D01*
X103103932Y-112536101D01*
X103237182Y-112286808D01*
X103319236Y-112016309D01*
X103346943Y-111735000D01*
X103319236Y-111453691D01*
X103237182Y-111183192D01*
X103103932Y-110933899D01*
X102924608Y-110715392D01*
X102706101Y-110536068D01*
X102573142Y-110465000D01*
X102706101Y-110393932D01*
X102924608Y-110214608D01*
X103103932Y-109996101D01*
X103237182Y-109746808D01*
X103319236Y-109476309D01*
X103346943Y-109195000D01*
X103319236Y-108913691D01*
X103237182Y-108643192D01*
X103103932Y-108393899D01*
X102924608Y-108175392D01*
X102706101Y-107996068D01*
X102573142Y-107925000D01*
X102706101Y-107853932D01*
X102924608Y-107674608D01*
X103103932Y-107456101D01*
X103237182Y-107206808D01*
X103319236Y-106936309D01*
X103346943Y-106655000D01*
X103319236Y-106373691D01*
X103237182Y-106103192D01*
X103103932Y-105853899D01*
X102924608Y-105635392D01*
X102706101Y-105456068D01*
X102573142Y-105385000D01*
X102706101Y-105313932D01*
X102924608Y-105134608D01*
X103103932Y-104916101D01*
X103237182Y-104666808D01*
X103319236Y-104396309D01*
X103346943Y-104115000D01*
X103319236Y-103833691D01*
X103237182Y-103563192D01*
X103103932Y-103313899D01*
X102924608Y-103095392D01*
X102706101Y-102916068D01*
X102573142Y-102845000D01*
X102706101Y-102773932D01*
X102924608Y-102594608D01*
X103103932Y-102376101D01*
X103237182Y-102126808D01*
X103319236Y-101856309D01*
X103346943Y-101575000D01*
X103319236Y-101293691D01*
X103237182Y-101023192D01*
X103103932Y-100773899D01*
X102924608Y-100555392D01*
X102706101Y-100376068D01*
X102573142Y-100305000D01*
X102706101Y-100233932D01*
X102924608Y-100054608D01*
X103103932Y-99836101D01*
X103237182Y-99586808D01*
X103319236Y-99316309D01*
X103346943Y-99035000D01*
X103319236Y-98753691D01*
X103237182Y-98483192D01*
X103103932Y-98233899D01*
X102924608Y-98015392D01*
X102706101Y-97836068D01*
X102573142Y-97765000D01*
X102706101Y-97693932D01*
X102924608Y-97514608D01*
X103103932Y-97296101D01*
X103237182Y-97046808D01*
X103319236Y-96776309D01*
X103346943Y-96495000D01*
X103319236Y-96213691D01*
X103237182Y-95943192D01*
X103103932Y-95693899D01*
X102924608Y-95475392D01*
X102706101Y-95296068D01*
X102573142Y-95225000D01*
X102706101Y-95153932D01*
X102924608Y-94974608D01*
X103103932Y-94756101D01*
X103237182Y-94506808D01*
X103319236Y-94236309D01*
X103346943Y-93955000D01*
X103319236Y-93673691D01*
X103237182Y-93403192D01*
X103103932Y-93153899D01*
X102924608Y-92935392D01*
X102706101Y-92756068D01*
X102573142Y-92685000D01*
X102706101Y-92613932D01*
X102924608Y-92434608D01*
X103103932Y-92216101D01*
X103237182Y-91966808D01*
X103319236Y-91696309D01*
X103346943Y-91415000D01*
X103319236Y-91133691D01*
X103237182Y-90863192D01*
X103202978Y-90799200D01*
X107198178Y-90799200D01*
X107235500Y-90802876D01*
X107272822Y-90799200D01*
X107272833Y-90799200D01*
X107384486Y-90788203D01*
X107527747Y-90744746D01*
X107659776Y-90674174D01*
X107775501Y-90579201D01*
X107799304Y-90550197D01*
X116102630Y-82246872D01*
X116125392Y-82274608D01*
G36*
X90990701Y-90550203D02*
G01*
X91014499Y-90579201D01*
X91130224Y-90674174D01*
X91262253Y-90744746D01*
X91405514Y-90788203D01*
X91517167Y-90799200D01*
X91517177Y-90799200D01*
X91554500Y-90802876D01*
X91591823Y-90799200D01*
X100607022Y-90799200D01*
X100572818Y-90863192D01*
X100490764Y-91133691D01*
X100463057Y-91415000D01*
X100490764Y-91696309D01*
X100572818Y-91966808D01*
X100706068Y-92216101D01*
X100885392Y-92434608D01*
X101103899Y-92613932D01*
X101236858Y-92685000D01*
X101103899Y-92756068D01*
X100885392Y-92935392D01*
X100706068Y-93153899D01*
X100572818Y-93403192D01*
X100490764Y-93673691D01*
X100463057Y-93955000D01*
X100490764Y-94236309D01*
X100572818Y-94506808D01*
X100706068Y-94756101D01*
X100885392Y-94974608D01*
X101103899Y-95153932D01*
X101236858Y-95225000D01*
X101103899Y-95296068D01*
X100885392Y-95475392D01*
X100706068Y-95693899D01*
X100572818Y-95943192D01*
X100490764Y-96213691D01*
X100463057Y-96495000D01*
X100490764Y-96776309D01*
X100572818Y-97046808D01*
X100706068Y-97296101D01*
X100885392Y-97514608D01*
X101103899Y-97693932D01*
X101236858Y-97765000D01*
X101103899Y-97836068D01*
X100885392Y-98015392D01*
X100706068Y-98233899D01*
X100572818Y-98483192D01*
X100490764Y-98753691D01*
X100463057Y-99035000D01*
X100490764Y-99316309D01*
X100572818Y-99586808D01*
X100706068Y-99836101D01*
X100885392Y-100054608D01*
X101103899Y-100233932D01*
X101236858Y-100305000D01*
X101103899Y-100376068D01*
X100885392Y-100555392D01*
X100706068Y-100773899D01*
X100684099Y-100815000D01*
X90770323Y-100815000D01*
X90733000Y-100811324D01*
X90695677Y-100815000D01*
X90695667Y-100815000D01*
X90584014Y-100825997D01*
X90440753Y-100869454D01*
X90308724Y-100940026D01*
X90192999Y-101034999D01*
X90169201Y-101063997D01*
X87645350Y-103587849D01*
X87594180Y-103560498D01*
X87474482Y-103524188D01*
X87350000Y-103511928D01*
X86084600Y-103511928D01*
X86084600Y-94327989D01*
X87128664Y-93283926D01*
X87164344Y-93254644D01*
X87281186Y-93112272D01*
X87368007Y-92949840D01*
X87421471Y-92773592D01*
X87435000Y-92636232D01*
X87439524Y-92590300D01*
X87435000Y-92544368D01*
X87435000Y-92393725D01*
X87555134Y-92295134D01*
X87740706Y-92069014D01*
X87771584Y-92011244D01*
X87942412Y-92240269D01*
X88158645Y-92435178D01*
X88408748Y-92584157D01*
X88683109Y-92681481D01*
X88913000Y-92560814D01*
X88913000Y-91367000D01*
X89167000Y-91367000D01*
X89167000Y-92560814D01*
X89396891Y-92681481D01*
X89671252Y-92584157D01*
X89921355Y-92435178D01*
X90137588Y-92240269D01*
X90311641Y-92006920D01*
X90436825Y-91744099D01*
X90481476Y-91596890D01*
X90360155Y-91367000D01*
X89167000Y-91367000D01*
X88913000Y-91367000D01*
X88893000Y-91367000D01*
X88893000Y-91113000D01*
X88913000Y-91113000D01*
X88913000Y-91093000D01*
X89167000Y-91093000D01*
X89167000Y-91113000D01*
X90360155Y-91113000D01*
X90481476Y-90883110D01*
X90436825Y-90735901D01*
X90311641Y-90473080D01*
X90137588Y-90239731D01*
X89921355Y-90044822D01*
X89804477Y-89975201D01*
X89869014Y-89940706D01*
X90095134Y-89755134D01*
X90140434Y-89699936D01*
X90990701Y-90550203D01*
X90990701Y-90550203D01*
G37*
X90990701Y-90550203D02*
X91014499Y-90579201D01*
X91130224Y-90674174D01*
X91262253Y-90744746D01*
X91405514Y-90788203D01*
X91517167Y-90799200D01*
X91517177Y-90799200D01*
X91554500Y-90802876D01*
X91591823Y-90799200D01*
X100607022Y-90799200D01*
X100572818Y-90863192D01*
X100490764Y-91133691D01*
X100463057Y-91415000D01*
X100490764Y-91696309D01*
X100572818Y-91966808D01*
X100706068Y-92216101D01*
X100885392Y-92434608D01*
X101103899Y-92613932D01*
X101236858Y-92685000D01*
X101103899Y-92756068D01*
X100885392Y-92935392D01*
X100706068Y-93153899D01*
X100572818Y-93403192D01*
X100490764Y-93673691D01*
X100463057Y-93955000D01*
X100490764Y-94236309D01*
X100572818Y-94506808D01*
X100706068Y-94756101D01*
X100885392Y-94974608D01*
X101103899Y-95153932D01*
X101236858Y-95225000D01*
X101103899Y-95296068D01*
X100885392Y-95475392D01*
X100706068Y-95693899D01*
X100572818Y-95943192D01*
X100490764Y-96213691D01*
X100463057Y-96495000D01*
X100490764Y-96776309D01*
X100572818Y-97046808D01*
X100706068Y-97296101D01*
X100885392Y-97514608D01*
X101103899Y-97693932D01*
X101236858Y-97765000D01*
X101103899Y-97836068D01*
X100885392Y-98015392D01*
X100706068Y-98233899D01*
X100572818Y-98483192D01*
X100490764Y-98753691D01*
X100463057Y-99035000D01*
X100490764Y-99316309D01*
X100572818Y-99586808D01*
X100706068Y-99836101D01*
X100885392Y-100054608D01*
X101103899Y-100233932D01*
X101236858Y-100305000D01*
X101103899Y-100376068D01*
X100885392Y-100555392D01*
X100706068Y-100773899D01*
X100684099Y-100815000D01*
X90770323Y-100815000D01*
X90733000Y-100811324D01*
X90695677Y-100815000D01*
X90695667Y-100815000D01*
X90584014Y-100825997D01*
X90440753Y-100869454D01*
X90308724Y-100940026D01*
X90192999Y-101034999D01*
X90169201Y-101063997D01*
X87645350Y-103587849D01*
X87594180Y-103560498D01*
X87474482Y-103524188D01*
X87350000Y-103511928D01*
X86084600Y-103511928D01*
X86084600Y-94327989D01*
X87128664Y-93283926D01*
X87164344Y-93254644D01*
X87281186Y-93112272D01*
X87368007Y-92949840D01*
X87421471Y-92773592D01*
X87435000Y-92636232D01*
X87439524Y-92590300D01*
X87435000Y-92544368D01*
X87435000Y-92393725D01*
X87555134Y-92295134D01*
X87740706Y-92069014D01*
X87771584Y-92011244D01*
X87942412Y-92240269D01*
X88158645Y-92435178D01*
X88408748Y-92584157D01*
X88683109Y-92681481D01*
X88913000Y-92560814D01*
X88913000Y-91367000D01*
X89167000Y-91367000D01*
X89167000Y-92560814D01*
X89396891Y-92681481D01*
X89671252Y-92584157D01*
X89921355Y-92435178D01*
X90137588Y-92240269D01*
X90311641Y-92006920D01*
X90436825Y-91744099D01*
X90481476Y-91596890D01*
X90360155Y-91367000D01*
X89167000Y-91367000D01*
X88913000Y-91367000D01*
X88893000Y-91367000D01*
X88893000Y-91113000D01*
X88913000Y-91113000D01*
X88913000Y-91093000D01*
X89167000Y-91093000D01*
X89167000Y-91113000D01*
X90360155Y-91113000D01*
X90481476Y-90883110D01*
X90436825Y-90735901D01*
X90311641Y-90473080D01*
X90137588Y-90239731D01*
X89921355Y-90044822D01*
X89804477Y-89975201D01*
X89869014Y-89940706D01*
X90095134Y-89755134D01*
X90140434Y-89699936D01*
X90990701Y-90550203D01*
G36*
X126553754Y-91891913D02*
G01*
X126513096Y-92025961D01*
X126635085Y-92248000D01*
X127778000Y-92248000D01*
X127778000Y-92228000D01*
X128032000Y-92228000D01*
X128032000Y-92248000D01*
X129174915Y-92248000D01*
X129296904Y-92025961D01*
X129256246Y-91891913D01*
X129175134Y-91720300D01*
X134247815Y-91720300D01*
X134192818Y-91823192D01*
X134110764Y-92093691D01*
X134083057Y-92375000D01*
X134110764Y-92656309D01*
X134192818Y-92926808D01*
X134326068Y-93176101D01*
X134505392Y-93394608D01*
X134723899Y-93573932D01*
X134856858Y-93645000D01*
X134723899Y-93716068D01*
X134505392Y-93895392D01*
X134326068Y-94113899D01*
X134192818Y-94363192D01*
X134110764Y-94633691D01*
X134083057Y-94915000D01*
X134110764Y-95196309D01*
X134192818Y-95466808D01*
X134326068Y-95716101D01*
X134505392Y-95934608D01*
X134723899Y-96113932D01*
X134786160Y-96147211D01*
X134775997Y-96180714D01*
X134771058Y-96230861D01*
X134723899Y-96256068D01*
X134505392Y-96435392D01*
X134326068Y-96653899D01*
X134192818Y-96903192D01*
X134110764Y-97173691D01*
X134083057Y-97455000D01*
X134110764Y-97736309D01*
X134192818Y-98006808D01*
X134326068Y-98256101D01*
X134505392Y-98474608D01*
X134723899Y-98653932D01*
X134856858Y-98725000D01*
X134723899Y-98796068D01*
X134505392Y-98975392D01*
X134326068Y-99193899D01*
X134192818Y-99443192D01*
X134110764Y-99713691D01*
X134083057Y-99995000D01*
X134110764Y-100276309D01*
X134138669Y-100368300D01*
X129289545Y-100368300D01*
X129296904Y-100344039D01*
X129174915Y-100122000D01*
X128032000Y-100122000D01*
X128032000Y-100142000D01*
X127778000Y-100142000D01*
X127778000Y-100122000D01*
X126635085Y-100122000D01*
X126513096Y-100344039D01*
X126520455Y-100368300D01*
X120247306Y-100368300D01*
X120210926Y-100185402D01*
X120132905Y-99997044D01*
X120019637Y-99827526D01*
X119875474Y-99683363D01*
X119705956Y-99570095D01*
X119517598Y-99492074D01*
X119317639Y-99452300D01*
X119113761Y-99452300D01*
X119030300Y-99468901D01*
X119030300Y-98501523D01*
X119033976Y-98464200D01*
X119030300Y-98426877D01*
X119030300Y-98426867D01*
X119019303Y-98315214D01*
X118975846Y-98171953D01*
X118905274Y-98039924D01*
X118810301Y-97924199D01*
X118781304Y-97900402D01*
X118268688Y-97387786D01*
X118343932Y-97296101D01*
X118477182Y-97046808D01*
X118559236Y-96776309D01*
X118586943Y-96495000D01*
X118559236Y-96213691D01*
X118477182Y-95943192D01*
X118343932Y-95693899D01*
X118164608Y-95475392D01*
X117946101Y-95296068D01*
X117813142Y-95225000D01*
X117946101Y-95153932D01*
X118164608Y-94974608D01*
X118213527Y-94915000D01*
X126463057Y-94915000D01*
X126490764Y-95196309D01*
X126572818Y-95466808D01*
X126706068Y-95716101D01*
X126885392Y-95934608D01*
X127103899Y-96113932D01*
X127236858Y-96185000D01*
X127103899Y-96256068D01*
X126885392Y-96435392D01*
X126706068Y-96653899D01*
X126572818Y-96903192D01*
X126490764Y-97173691D01*
X126463057Y-97455000D01*
X126490764Y-97736309D01*
X126572818Y-98006808D01*
X126706068Y-98256101D01*
X126885392Y-98474608D01*
X127103899Y-98653932D01*
X127241682Y-98727579D01*
X127049869Y-98842615D01*
X126841481Y-99031586D01*
X126673963Y-99257580D01*
X126553754Y-99511913D01*
X126513096Y-99645961D01*
X126635085Y-99868000D01*
X127778000Y-99868000D01*
X127778000Y-99848000D01*
X128032000Y-99848000D01*
X128032000Y-99868000D01*
X129174915Y-99868000D01*
X129296904Y-99645961D01*
X129256246Y-99511913D01*
X129136037Y-99257580D01*
X128968519Y-99031586D01*
X128760131Y-98842615D01*
X128568318Y-98727579D01*
X128706101Y-98653932D01*
X128924608Y-98474608D01*
X129103932Y-98256101D01*
X129237182Y-98006808D01*
X129319236Y-97736309D01*
X129346943Y-97455000D01*
X129319236Y-97173691D01*
X129237182Y-96903192D01*
X129103932Y-96653899D01*
X128924608Y-96435392D01*
X128706101Y-96256068D01*
X128573142Y-96185000D01*
X128706101Y-96113932D01*
X128924608Y-95934608D01*
X129103932Y-95716101D01*
X129237182Y-95466808D01*
X129319236Y-95196309D01*
X129346943Y-94915000D01*
X129319236Y-94633691D01*
X129237182Y-94363192D01*
X129103932Y-94113899D01*
X128924608Y-93895392D01*
X128706101Y-93716068D01*
X128568318Y-93642421D01*
X128760131Y-93527385D01*
X128968519Y-93338414D01*
X129136037Y-93112420D01*
X129256246Y-92858087D01*
X129296904Y-92724039D01*
X129174915Y-92502000D01*
X128032000Y-92502000D01*
X128032000Y-92522000D01*
X127778000Y-92522000D01*
X127778000Y-92502000D01*
X126635085Y-92502000D01*
X126513096Y-92724039D01*
X126553754Y-92858087D01*
X126673963Y-93112420D01*
X126841481Y-93338414D01*
X127049869Y-93527385D01*
X127241682Y-93642421D01*
X127103899Y-93716068D01*
X126885392Y-93895392D01*
X126706068Y-94113899D01*
X126572818Y-94363192D01*
X126490764Y-94633691D01*
X126463057Y-94915000D01*
X118213527Y-94915000D01*
X118343932Y-94756101D01*
X118369139Y-94708942D01*
X118419286Y-94704003D01*
X118562547Y-94660546D01*
X118694576Y-94589974D01*
X118810301Y-94495001D01*
X118834104Y-94465997D01*
X121579802Y-91720300D01*
X126634866Y-91720300D01*
X126553754Y-91891913D01*
X126553754Y-91891913D01*
G37*
X126553754Y-91891913D02*
X126513096Y-92025961D01*
X126635085Y-92248000D01*
X127778000Y-92248000D01*
X127778000Y-92228000D01*
X128032000Y-92228000D01*
X128032000Y-92248000D01*
X129174915Y-92248000D01*
X129296904Y-92025961D01*
X129256246Y-91891913D01*
X129175134Y-91720300D01*
X134247815Y-91720300D01*
X134192818Y-91823192D01*
X134110764Y-92093691D01*
X134083057Y-92375000D01*
X134110764Y-92656309D01*
X134192818Y-92926808D01*
X134326068Y-93176101D01*
X134505392Y-93394608D01*
X134723899Y-93573932D01*
X134856858Y-93645000D01*
X134723899Y-93716068D01*
X134505392Y-93895392D01*
X134326068Y-94113899D01*
X134192818Y-94363192D01*
X134110764Y-94633691D01*
X134083057Y-94915000D01*
X134110764Y-95196309D01*
X134192818Y-95466808D01*
X134326068Y-95716101D01*
X134505392Y-95934608D01*
X134723899Y-96113932D01*
X134786160Y-96147211D01*
X134775997Y-96180714D01*
X134771058Y-96230861D01*
X134723899Y-96256068D01*
X134505392Y-96435392D01*
X134326068Y-96653899D01*
X134192818Y-96903192D01*
X134110764Y-97173691D01*
X134083057Y-97455000D01*
X134110764Y-97736309D01*
X134192818Y-98006808D01*
X134326068Y-98256101D01*
X134505392Y-98474608D01*
X134723899Y-98653932D01*
X134856858Y-98725000D01*
X134723899Y-98796068D01*
X134505392Y-98975392D01*
X134326068Y-99193899D01*
X134192818Y-99443192D01*
X134110764Y-99713691D01*
X134083057Y-99995000D01*
X134110764Y-100276309D01*
X134138669Y-100368300D01*
X129289545Y-100368300D01*
X129296904Y-100344039D01*
X129174915Y-100122000D01*
X128032000Y-100122000D01*
X128032000Y-100142000D01*
X127778000Y-100142000D01*
X127778000Y-100122000D01*
X126635085Y-100122000D01*
X126513096Y-100344039D01*
X126520455Y-100368300D01*
X120247306Y-100368300D01*
X120210926Y-100185402D01*
X120132905Y-99997044D01*
X120019637Y-99827526D01*
X119875474Y-99683363D01*
X119705956Y-99570095D01*
X119517598Y-99492074D01*
X119317639Y-99452300D01*
X119113761Y-99452300D01*
X119030300Y-99468901D01*
X119030300Y-98501523D01*
X119033976Y-98464200D01*
X119030300Y-98426877D01*
X119030300Y-98426867D01*
X119019303Y-98315214D01*
X118975846Y-98171953D01*
X118905274Y-98039924D01*
X118810301Y-97924199D01*
X118781304Y-97900402D01*
X118268688Y-97387786D01*
X118343932Y-97296101D01*
X118477182Y-97046808D01*
X118559236Y-96776309D01*
X118586943Y-96495000D01*
X118559236Y-96213691D01*
X118477182Y-95943192D01*
X118343932Y-95693899D01*
X118164608Y-95475392D01*
X117946101Y-95296068D01*
X117813142Y-95225000D01*
X117946101Y-95153932D01*
X118164608Y-94974608D01*
X118213527Y-94915000D01*
X126463057Y-94915000D01*
X126490764Y-95196309D01*
X126572818Y-95466808D01*
X126706068Y-95716101D01*
X126885392Y-95934608D01*
X127103899Y-96113932D01*
X127236858Y-96185000D01*
X127103899Y-96256068D01*
X126885392Y-96435392D01*
X126706068Y-96653899D01*
X126572818Y-96903192D01*
X126490764Y-97173691D01*
X126463057Y-97455000D01*
X126490764Y-97736309D01*
X126572818Y-98006808D01*
X126706068Y-98256101D01*
X126885392Y-98474608D01*
X127103899Y-98653932D01*
X127241682Y-98727579D01*
X127049869Y-98842615D01*
X126841481Y-99031586D01*
X126673963Y-99257580D01*
X126553754Y-99511913D01*
X126513096Y-99645961D01*
X126635085Y-99868000D01*
X127778000Y-99868000D01*
X127778000Y-99848000D01*
X128032000Y-99848000D01*
X128032000Y-99868000D01*
X129174915Y-99868000D01*
X129296904Y-99645961D01*
X129256246Y-99511913D01*
X129136037Y-99257580D01*
X128968519Y-99031586D01*
X128760131Y-98842615D01*
X128568318Y-98727579D01*
X128706101Y-98653932D01*
X128924608Y-98474608D01*
X129103932Y-98256101D01*
X129237182Y-98006808D01*
X129319236Y-97736309D01*
X129346943Y-97455000D01*
X129319236Y-97173691D01*
X129237182Y-96903192D01*
X129103932Y-96653899D01*
X128924608Y-96435392D01*
X128706101Y-96256068D01*
X128573142Y-96185000D01*
X128706101Y-96113932D01*
X128924608Y-95934608D01*
X129103932Y-95716101D01*
X129237182Y-95466808D01*
X129319236Y-95196309D01*
X129346943Y-94915000D01*
X129319236Y-94633691D01*
X129237182Y-94363192D01*
X129103932Y-94113899D01*
X128924608Y-93895392D01*
X128706101Y-93716068D01*
X128568318Y-93642421D01*
X128760131Y-93527385D01*
X128968519Y-93338414D01*
X129136037Y-93112420D01*
X129256246Y-92858087D01*
X129296904Y-92724039D01*
X129174915Y-92502000D01*
X128032000Y-92502000D01*
X128032000Y-92522000D01*
X127778000Y-92522000D01*
X127778000Y-92502000D01*
X126635085Y-92502000D01*
X126513096Y-92724039D01*
X126553754Y-92858087D01*
X126673963Y-93112420D01*
X126841481Y-93338414D01*
X127049869Y-93527385D01*
X127241682Y-93642421D01*
X127103899Y-93716068D01*
X126885392Y-93895392D01*
X126706068Y-94113899D01*
X126572818Y-94363192D01*
X126490764Y-94633691D01*
X126463057Y-94915000D01*
X118213527Y-94915000D01*
X118343932Y-94756101D01*
X118369139Y-94708942D01*
X118419286Y-94704003D01*
X118562547Y-94660546D01*
X118694576Y-94589974D01*
X118810301Y-94495001D01*
X118834104Y-94465997D01*
X121579802Y-91720300D01*
X126634866Y-91720300D01*
X126553754Y-91891913D01*
G36*
X163385000Y-80592402D02*
G01*
X163385000Y-80994099D01*
X163343899Y-81016068D01*
X163125392Y-81195392D01*
X162946068Y-81413899D01*
X162812818Y-81663192D01*
X162730764Y-81933691D01*
X162703057Y-82215000D01*
X162730764Y-82496309D01*
X162812818Y-82766808D01*
X162946068Y-83016101D01*
X163125392Y-83234608D01*
X163343899Y-83413932D01*
X163476858Y-83485000D01*
X163343899Y-83556068D01*
X163125392Y-83735392D01*
X162946068Y-83953899D01*
X162812818Y-84203192D01*
X162730764Y-84473691D01*
X162703057Y-84755000D01*
X162730764Y-85036309D01*
X162812818Y-85306808D01*
X162946068Y-85556101D01*
X163125392Y-85774608D01*
X163343899Y-85953932D01*
X163406160Y-85987211D01*
X163395997Y-86020714D01*
X163391058Y-86070861D01*
X163343899Y-86096068D01*
X163125392Y-86275392D01*
X162946068Y-86493899D01*
X162812818Y-86743192D01*
X162730764Y-87013691D01*
X162703057Y-87295000D01*
X162730764Y-87576309D01*
X162812818Y-87846808D01*
X162946068Y-88096101D01*
X163125392Y-88314608D01*
X163343899Y-88493932D01*
X163406160Y-88527211D01*
X163395997Y-88560714D01*
X163391058Y-88610861D01*
X163343899Y-88636068D01*
X163125392Y-88815392D01*
X162946068Y-89033899D01*
X162812818Y-89283192D01*
X162730764Y-89553691D01*
X162703057Y-89835000D01*
X162730764Y-90116309D01*
X162812818Y-90386808D01*
X162946068Y-90636101D01*
X163125392Y-90854608D01*
X163343899Y-91033932D01*
X163406160Y-91067211D01*
X163395997Y-91100714D01*
X163391058Y-91150861D01*
X163343899Y-91176068D01*
X163125392Y-91355392D01*
X162946068Y-91573899D01*
X162812818Y-91823192D01*
X162730764Y-92093691D01*
X162703057Y-92375000D01*
X162730764Y-92656309D01*
X162812818Y-92926808D01*
X162946068Y-93176101D01*
X163125392Y-93394608D01*
X163343899Y-93573932D01*
X163476858Y-93645000D01*
X163343899Y-93716068D01*
X163125392Y-93895392D01*
X163102630Y-93923128D01*
X157233504Y-88054003D01*
X157209701Y-88024999D01*
X157093976Y-87930026D01*
X156961947Y-87859454D01*
X156818686Y-87815997D01*
X156707033Y-87805000D01*
X156707022Y-87805000D01*
X156669700Y-87801324D01*
X156632378Y-87805000D01*
X150249864Y-87805000D01*
X150319236Y-87576309D01*
X150346943Y-87295000D01*
X150319236Y-87013691D01*
X150237182Y-86743192D01*
X150103932Y-86493899D01*
X149924608Y-86275392D01*
X149706101Y-86096068D01*
X149573142Y-86025000D01*
X149706101Y-85953932D01*
X149924608Y-85774608D01*
X150103932Y-85556101D01*
X150237182Y-85306808D01*
X150319236Y-85036309D01*
X150346943Y-84755000D01*
X150319236Y-84473691D01*
X150237182Y-84203192D01*
X150103932Y-83953899D01*
X149924608Y-83735392D01*
X149811518Y-83642581D01*
X149829482Y-83640812D01*
X149949180Y-83604502D01*
X150059494Y-83545537D01*
X150156185Y-83466185D01*
X150235537Y-83369494D01*
X150294502Y-83259180D01*
X150330812Y-83139482D01*
X150343072Y-83015000D01*
X150340000Y-82500750D01*
X150181250Y-82342000D01*
X149032000Y-82342000D01*
X149032000Y-82362000D01*
X148778000Y-82362000D01*
X148778000Y-82342000D01*
X147628750Y-82342000D01*
X147470000Y-82500750D01*
X147466928Y-83015000D01*
X147479188Y-83139482D01*
X147515498Y-83259180D01*
X147574463Y-83369494D01*
X147653815Y-83466185D01*
X147750506Y-83545537D01*
X147860820Y-83604502D01*
X147980518Y-83640812D01*
X147998482Y-83642581D01*
X147885392Y-83735392D01*
X147862630Y-83763128D01*
X147218204Y-83118702D01*
X147194401Y-83089699D01*
X147078676Y-82994726D01*
X146946647Y-82924154D01*
X146803386Y-82880697D01*
X146691733Y-82869700D01*
X146691722Y-82869700D01*
X146654400Y-82866024D01*
X146617078Y-82869700D01*
X136802185Y-82869700D01*
X136857182Y-82766808D01*
X136939236Y-82496309D01*
X136966943Y-82215000D01*
X136939236Y-81933691D01*
X136857182Y-81663192D01*
X136724521Y-81415000D01*
X147466928Y-81415000D01*
X147470000Y-81929250D01*
X147628750Y-82088000D01*
X148778000Y-82088000D01*
X148778000Y-80938750D01*
X149032000Y-80938750D01*
X149032000Y-82088000D01*
X150181250Y-82088000D01*
X150340000Y-81929250D01*
X150343072Y-81415000D01*
X150330812Y-81290518D01*
X150294502Y-81170820D01*
X150235537Y-81060506D01*
X150156185Y-80963815D01*
X150059494Y-80884463D01*
X149949180Y-80825498D01*
X149829482Y-80789188D01*
X149705000Y-80776928D01*
X149190750Y-80780000D01*
X149032000Y-80938750D01*
X148778000Y-80938750D01*
X148619250Y-80780000D01*
X148105000Y-80776928D01*
X147980518Y-80789188D01*
X147860820Y-80825498D01*
X147750506Y-80884463D01*
X147653815Y-80963815D01*
X147574463Y-81060506D01*
X147515498Y-81170820D01*
X147479188Y-81290518D01*
X147466928Y-81415000D01*
X136724521Y-81415000D01*
X136723932Y-81413899D01*
X136544608Y-81195392D01*
X136326101Y-81016068D01*
X136076808Y-80882818D01*
X135806309Y-80800764D01*
X135595492Y-80780000D01*
X135454508Y-80780000D01*
X135243691Y-80800764D01*
X134973192Y-80882818D01*
X134723899Y-81016068D01*
X134505392Y-81195392D01*
X134326068Y-81413899D01*
X134267352Y-81523750D01*
X133394842Y-80651240D01*
X133475512Y-80655217D01*
X133755130Y-80613787D01*
X134021292Y-80518603D01*
X134146514Y-80451671D01*
X134218097Y-80207702D01*
X133405000Y-79394605D01*
X133390858Y-79408748D01*
X133211253Y-79229143D01*
X133225395Y-79215000D01*
X132412298Y-78401903D01*
X132168329Y-78473486D01*
X132047429Y-78728996D01*
X131978700Y-79003184D01*
X131967805Y-79224203D01*
X130965900Y-78222298D01*
X132591903Y-78222298D01*
X133405000Y-79035395D01*
X134218097Y-78222298D01*
X134146514Y-77978329D01*
X133891004Y-77857429D01*
X133616816Y-77788700D01*
X133334488Y-77774783D01*
X133054870Y-77816213D01*
X132788708Y-77911397D01*
X132663486Y-77978329D01*
X132591903Y-78222298D01*
X130965900Y-78222298D01*
X125728601Y-72985000D01*
X125792950Y-72985000D01*
X126011111Y-72963513D01*
X126291034Y-72878599D01*
X126549014Y-72740706D01*
X126775134Y-72555134D01*
X126960706Y-72329014D01*
X126990000Y-72274209D01*
X127019294Y-72329014D01*
X127204866Y-72555134D01*
X127430986Y-72740706D01*
X127688966Y-72878599D01*
X127968889Y-72963513D01*
X128187050Y-72985000D01*
X128332950Y-72985000D01*
X128551111Y-72963513D01*
X128831034Y-72878599D01*
X129089014Y-72740706D01*
X129315134Y-72555134D01*
X129500706Y-72329014D01*
X129530000Y-72274209D01*
X129559294Y-72329014D01*
X129744866Y-72555134D01*
X129970986Y-72740706D01*
X130228966Y-72878599D01*
X130508889Y-72963513D01*
X130727050Y-72985000D01*
X130872950Y-72985000D01*
X131091111Y-72963513D01*
X131371034Y-72878599D01*
X131629014Y-72740706D01*
X131855134Y-72555134D01*
X132040706Y-72329014D01*
X132070000Y-72274209D01*
X132099294Y-72329014D01*
X132284866Y-72555134D01*
X132510986Y-72740706D01*
X132768966Y-72878599D01*
X133048889Y-72963513D01*
X133267050Y-72985000D01*
X133412950Y-72985000D01*
X133631111Y-72963513D01*
X133911034Y-72878599D01*
X134169014Y-72740706D01*
X134395134Y-72555134D01*
X134580706Y-72329014D01*
X134610000Y-72274209D01*
X134639294Y-72329014D01*
X134824866Y-72555134D01*
X135050986Y-72740706D01*
X135308966Y-72878599D01*
X135588889Y-72963513D01*
X135807050Y-72985000D01*
X135952950Y-72985000D01*
X136171111Y-72963513D01*
X136451034Y-72878599D01*
X136709014Y-72740706D01*
X136935134Y-72555134D01*
X137120706Y-72329014D01*
X137150000Y-72274209D01*
X137179294Y-72329014D01*
X137364866Y-72555134D01*
X137590986Y-72740706D01*
X137848966Y-72878599D01*
X138128889Y-72963513D01*
X138347050Y-72985000D01*
X138492950Y-72985000D01*
X138711111Y-72963513D01*
X138991034Y-72878599D01*
X139249014Y-72740706D01*
X139328595Y-72675396D01*
X139839601Y-73186402D01*
X139863399Y-73215401D01*
X139892397Y-73239199D01*
X139979123Y-73310374D01*
X140110966Y-73380846D01*
X140111153Y-73380946D01*
X140254414Y-73424403D01*
X140366067Y-73435400D01*
X140366077Y-73435400D01*
X140403400Y-73439076D01*
X140440722Y-73435400D01*
X149031478Y-73435400D01*
X149068800Y-73439076D01*
X149106122Y-73435400D01*
X149106133Y-73435400D01*
X149217786Y-73424403D01*
X149361047Y-73380946D01*
X149493076Y-73310374D01*
X149608801Y-73215401D01*
X149632603Y-73186398D01*
X150174167Y-72644835D01*
X150290986Y-72740706D01*
X150548966Y-72878599D01*
X150828889Y-72963513D01*
X150870136Y-72967575D01*
X145557711Y-78280000D01*
X136999396Y-78280000D01*
X136819759Y-78100363D01*
X136584727Y-77943320D01*
X136323574Y-77835147D01*
X136046335Y-77780000D01*
X135763665Y-77780000D01*
X135486426Y-77835147D01*
X135225273Y-77943320D01*
X134990241Y-78100363D01*
X134790363Y-78300241D01*
X134656308Y-78500869D01*
X134641671Y-78473486D01*
X134397702Y-78401903D01*
X133584605Y-79215000D01*
X134397702Y-80028097D01*
X134641671Y-79956514D01*
X134655324Y-79927659D01*
X134790363Y-80129759D01*
X134990241Y-80329637D01*
X135225273Y-80486680D01*
X135486426Y-80594853D01*
X135763665Y-80650000D01*
X136046335Y-80650000D01*
X136323574Y-80594853D01*
X136584727Y-80486680D01*
X136819759Y-80329637D01*
X136999396Y-80150000D01*
X145899068Y-80150000D01*
X145945000Y-80154524D01*
X145990932Y-80150000D01*
X146128292Y-80136471D01*
X146304540Y-80083007D01*
X146466972Y-79996186D01*
X146609344Y-79879344D01*
X146638630Y-79843659D01*
X153505337Y-72976952D01*
X153587050Y-72985000D01*
X153732950Y-72985000D01*
X153951111Y-72963513D01*
X154231034Y-72878599D01*
X154489014Y-72740706D01*
X154715134Y-72555134D01*
X154900706Y-72329014D01*
X154977654Y-72185055D01*
X163385000Y-80592402D01*
X163385000Y-80592402D01*
G37*
X163385000Y-80592402D02*
X163385000Y-80994099D01*
X163343899Y-81016068D01*
X163125392Y-81195392D01*
X162946068Y-81413899D01*
X162812818Y-81663192D01*
X162730764Y-81933691D01*
X162703057Y-82215000D01*
X162730764Y-82496309D01*
X162812818Y-82766808D01*
X162946068Y-83016101D01*
X163125392Y-83234608D01*
X163343899Y-83413932D01*
X163476858Y-83485000D01*
X163343899Y-83556068D01*
X163125392Y-83735392D01*
X162946068Y-83953899D01*
X162812818Y-84203192D01*
X162730764Y-84473691D01*
X162703057Y-84755000D01*
X162730764Y-85036309D01*
X162812818Y-85306808D01*
X162946068Y-85556101D01*
X163125392Y-85774608D01*
X163343899Y-85953932D01*
X163406160Y-85987211D01*
X163395997Y-86020714D01*
X163391058Y-86070861D01*
X163343899Y-86096068D01*
X163125392Y-86275392D01*
X162946068Y-86493899D01*
X162812818Y-86743192D01*
X162730764Y-87013691D01*
X162703057Y-87295000D01*
X162730764Y-87576309D01*
X162812818Y-87846808D01*
X162946068Y-88096101D01*
X163125392Y-88314608D01*
X163343899Y-88493932D01*
X163406160Y-88527211D01*
X163395997Y-88560714D01*
X163391058Y-88610861D01*
X163343899Y-88636068D01*
X163125392Y-88815392D01*
X162946068Y-89033899D01*
X162812818Y-89283192D01*
X162730764Y-89553691D01*
X162703057Y-89835000D01*
X162730764Y-90116309D01*
X162812818Y-90386808D01*
X162946068Y-90636101D01*
X163125392Y-90854608D01*
X163343899Y-91033932D01*
X163406160Y-91067211D01*
X163395997Y-91100714D01*
X163391058Y-91150861D01*
X163343899Y-91176068D01*
X163125392Y-91355392D01*
X162946068Y-91573899D01*
X162812818Y-91823192D01*
X162730764Y-92093691D01*
X162703057Y-92375000D01*
X162730764Y-92656309D01*
X162812818Y-92926808D01*
X162946068Y-93176101D01*
X163125392Y-93394608D01*
X163343899Y-93573932D01*
X163476858Y-93645000D01*
X163343899Y-93716068D01*
X163125392Y-93895392D01*
X163102630Y-93923128D01*
X157233504Y-88054003D01*
X157209701Y-88024999D01*
X157093976Y-87930026D01*
X156961947Y-87859454D01*
X156818686Y-87815997D01*
X156707033Y-87805000D01*
X156707022Y-87805000D01*
X156669700Y-87801324D01*
X156632378Y-87805000D01*
X150249864Y-87805000D01*
X150319236Y-87576309D01*
X150346943Y-87295000D01*
X150319236Y-87013691D01*
X150237182Y-86743192D01*
X150103932Y-86493899D01*
X149924608Y-86275392D01*
X149706101Y-86096068D01*
X149573142Y-86025000D01*
X149706101Y-85953932D01*
X149924608Y-85774608D01*
X150103932Y-85556101D01*
X150237182Y-85306808D01*
X150319236Y-85036309D01*
X150346943Y-84755000D01*
X150319236Y-84473691D01*
X150237182Y-84203192D01*
X150103932Y-83953899D01*
X149924608Y-83735392D01*
X149811518Y-83642581D01*
X149829482Y-83640812D01*
X149949180Y-83604502D01*
X150059494Y-83545537D01*
X150156185Y-83466185D01*
X150235537Y-83369494D01*
X150294502Y-83259180D01*
X150330812Y-83139482D01*
X150343072Y-83015000D01*
X150340000Y-82500750D01*
X150181250Y-82342000D01*
X149032000Y-82342000D01*
X149032000Y-82362000D01*
X148778000Y-82362000D01*
X148778000Y-82342000D01*
X147628750Y-82342000D01*
X147470000Y-82500750D01*
X147466928Y-83015000D01*
X147479188Y-83139482D01*
X147515498Y-83259180D01*
X147574463Y-83369494D01*
X147653815Y-83466185D01*
X147750506Y-83545537D01*
X147860820Y-83604502D01*
X147980518Y-83640812D01*
X147998482Y-83642581D01*
X147885392Y-83735392D01*
X147862630Y-83763128D01*
X147218204Y-83118702D01*
X147194401Y-83089699D01*
X147078676Y-82994726D01*
X146946647Y-82924154D01*
X146803386Y-82880697D01*
X146691733Y-82869700D01*
X146691722Y-82869700D01*
X146654400Y-82866024D01*
X146617078Y-82869700D01*
X136802185Y-82869700D01*
X136857182Y-82766808D01*
X136939236Y-82496309D01*
X136966943Y-82215000D01*
X136939236Y-81933691D01*
X136857182Y-81663192D01*
X136724521Y-81415000D01*
X147466928Y-81415000D01*
X147470000Y-81929250D01*
X147628750Y-82088000D01*
X148778000Y-82088000D01*
X148778000Y-80938750D01*
X149032000Y-80938750D01*
X149032000Y-82088000D01*
X150181250Y-82088000D01*
X150340000Y-81929250D01*
X150343072Y-81415000D01*
X150330812Y-81290518D01*
X150294502Y-81170820D01*
X150235537Y-81060506D01*
X150156185Y-80963815D01*
X150059494Y-80884463D01*
X149949180Y-80825498D01*
X149829482Y-80789188D01*
X149705000Y-80776928D01*
X149190750Y-80780000D01*
X149032000Y-80938750D01*
X148778000Y-80938750D01*
X148619250Y-80780000D01*
X148105000Y-80776928D01*
X147980518Y-80789188D01*
X147860820Y-80825498D01*
X147750506Y-80884463D01*
X147653815Y-80963815D01*
X147574463Y-81060506D01*
X147515498Y-81170820D01*
X147479188Y-81290518D01*
X147466928Y-81415000D01*
X136724521Y-81415000D01*
X136723932Y-81413899D01*
X136544608Y-81195392D01*
X136326101Y-81016068D01*
X136076808Y-80882818D01*
X135806309Y-80800764D01*
X135595492Y-80780000D01*
X135454508Y-80780000D01*
X135243691Y-80800764D01*
X134973192Y-80882818D01*
X134723899Y-81016068D01*
X134505392Y-81195392D01*
X134326068Y-81413899D01*
X134267352Y-81523750D01*
X133394842Y-80651240D01*
X133475512Y-80655217D01*
X133755130Y-80613787D01*
X134021292Y-80518603D01*
X134146514Y-80451671D01*
X134218097Y-80207702D01*
X133405000Y-79394605D01*
X133390858Y-79408748D01*
X133211253Y-79229143D01*
X133225395Y-79215000D01*
X132412298Y-78401903D01*
X132168329Y-78473486D01*
X132047429Y-78728996D01*
X131978700Y-79003184D01*
X131967805Y-79224203D01*
X130965900Y-78222298D01*
X132591903Y-78222298D01*
X133405000Y-79035395D01*
X134218097Y-78222298D01*
X134146514Y-77978329D01*
X133891004Y-77857429D01*
X133616816Y-77788700D01*
X133334488Y-77774783D01*
X133054870Y-77816213D01*
X132788708Y-77911397D01*
X132663486Y-77978329D01*
X132591903Y-78222298D01*
X130965900Y-78222298D01*
X125728601Y-72985000D01*
X125792950Y-72985000D01*
X126011111Y-72963513D01*
X126291034Y-72878599D01*
X126549014Y-72740706D01*
X126775134Y-72555134D01*
X126960706Y-72329014D01*
X126990000Y-72274209D01*
X127019294Y-72329014D01*
X127204866Y-72555134D01*
X127430986Y-72740706D01*
X127688966Y-72878599D01*
X127968889Y-72963513D01*
X128187050Y-72985000D01*
X128332950Y-72985000D01*
X128551111Y-72963513D01*
X128831034Y-72878599D01*
X129089014Y-72740706D01*
X129315134Y-72555134D01*
X129500706Y-72329014D01*
X129530000Y-72274209D01*
X129559294Y-72329014D01*
X129744866Y-72555134D01*
X129970986Y-72740706D01*
X130228966Y-72878599D01*
X130508889Y-72963513D01*
X130727050Y-72985000D01*
X130872950Y-72985000D01*
X131091111Y-72963513D01*
X131371034Y-72878599D01*
X131629014Y-72740706D01*
X131855134Y-72555134D01*
X132040706Y-72329014D01*
X132070000Y-72274209D01*
X132099294Y-72329014D01*
X132284866Y-72555134D01*
X132510986Y-72740706D01*
X132768966Y-72878599D01*
X133048889Y-72963513D01*
X133267050Y-72985000D01*
X133412950Y-72985000D01*
X133631111Y-72963513D01*
X133911034Y-72878599D01*
X134169014Y-72740706D01*
X134395134Y-72555134D01*
X134580706Y-72329014D01*
X134610000Y-72274209D01*
X134639294Y-72329014D01*
X134824866Y-72555134D01*
X135050986Y-72740706D01*
X135308966Y-72878599D01*
X135588889Y-72963513D01*
X135807050Y-72985000D01*
X135952950Y-72985000D01*
X136171111Y-72963513D01*
X136451034Y-72878599D01*
X136709014Y-72740706D01*
X136935134Y-72555134D01*
X137120706Y-72329014D01*
X137150000Y-72274209D01*
X137179294Y-72329014D01*
X137364866Y-72555134D01*
X137590986Y-72740706D01*
X137848966Y-72878599D01*
X138128889Y-72963513D01*
X138347050Y-72985000D01*
X138492950Y-72985000D01*
X138711111Y-72963513D01*
X138991034Y-72878599D01*
X139249014Y-72740706D01*
X139328595Y-72675396D01*
X139839601Y-73186402D01*
X139863399Y-73215401D01*
X139892397Y-73239199D01*
X139979123Y-73310374D01*
X140110966Y-73380846D01*
X140111153Y-73380946D01*
X140254414Y-73424403D01*
X140366067Y-73435400D01*
X140366077Y-73435400D01*
X140403400Y-73439076D01*
X140440722Y-73435400D01*
X149031478Y-73435400D01*
X149068800Y-73439076D01*
X149106122Y-73435400D01*
X149106133Y-73435400D01*
X149217786Y-73424403D01*
X149361047Y-73380946D01*
X149493076Y-73310374D01*
X149608801Y-73215401D01*
X149632603Y-73186398D01*
X150174167Y-72644835D01*
X150290986Y-72740706D01*
X150548966Y-72878599D01*
X150828889Y-72963513D01*
X150870136Y-72967575D01*
X145557711Y-78280000D01*
X136999396Y-78280000D01*
X136819759Y-78100363D01*
X136584727Y-77943320D01*
X136323574Y-77835147D01*
X136046335Y-77780000D01*
X135763665Y-77780000D01*
X135486426Y-77835147D01*
X135225273Y-77943320D01*
X134990241Y-78100363D01*
X134790363Y-78300241D01*
X134656308Y-78500869D01*
X134641671Y-78473486D01*
X134397702Y-78401903D01*
X133584605Y-79215000D01*
X134397702Y-80028097D01*
X134641671Y-79956514D01*
X134655324Y-79927659D01*
X134790363Y-80129759D01*
X134990241Y-80329637D01*
X135225273Y-80486680D01*
X135486426Y-80594853D01*
X135763665Y-80650000D01*
X136046335Y-80650000D01*
X136323574Y-80594853D01*
X136584727Y-80486680D01*
X136819759Y-80329637D01*
X136999396Y-80150000D01*
X145899068Y-80150000D01*
X145945000Y-80154524D01*
X145990932Y-80150000D01*
X146128292Y-80136471D01*
X146304540Y-80083007D01*
X146466972Y-79996186D01*
X146609344Y-79879344D01*
X146638630Y-79843659D01*
X153505337Y-72976952D01*
X153587050Y-72985000D01*
X153732950Y-72985000D01*
X153951111Y-72963513D01*
X154231034Y-72878599D01*
X154489014Y-72740706D01*
X154715134Y-72555134D01*
X154900706Y-72329014D01*
X154977654Y-72185055D01*
X163385000Y-80592402D01*
G36*
X119272126Y-89368937D02*
G01*
X119441644Y-89482205D01*
X119630002Y-89560226D01*
X119829961Y-89600000D01*
X120033839Y-89600000D01*
X120233798Y-89560226D01*
X120422156Y-89482205D01*
X120591674Y-89368937D01*
X120635611Y-89325000D01*
X126566474Y-89325000D01*
X126553754Y-89351913D01*
X126513096Y-89485961D01*
X126635085Y-89708000D01*
X127778000Y-89708000D01*
X127778000Y-89688000D01*
X128032000Y-89688000D01*
X128032000Y-89708000D01*
X129174915Y-89708000D01*
X129296904Y-89485961D01*
X129256246Y-89351913D01*
X129243526Y-89325000D01*
X134180136Y-89325000D01*
X134110764Y-89553691D01*
X134083057Y-89835000D01*
X134110764Y-90116309D01*
X134136242Y-90200300D01*
X129291972Y-90200300D01*
X129296904Y-90184039D01*
X129174915Y-89962000D01*
X128032000Y-89962000D01*
X128032000Y-89982000D01*
X127778000Y-89982000D01*
X127778000Y-89962000D01*
X126635085Y-89962000D01*
X126513096Y-90184039D01*
X126518028Y-90200300D01*
X121302322Y-90200300D01*
X121264999Y-90196624D01*
X121227676Y-90200300D01*
X121227667Y-90200300D01*
X121116014Y-90211297D01*
X120972753Y-90254754D01*
X120840724Y-90325326D01*
X120724999Y-90420299D01*
X120701201Y-90449297D01*
X118187371Y-92963128D01*
X118164608Y-92935392D01*
X117946101Y-92756068D01*
X117813142Y-92685000D01*
X117946101Y-92613932D01*
X118164608Y-92434608D01*
X118343932Y-92216101D01*
X118477182Y-91966808D01*
X118559236Y-91696309D01*
X118586943Y-91415000D01*
X118559236Y-91133691D01*
X118477182Y-90863192D01*
X118343932Y-90613899D01*
X118268688Y-90522214D01*
X118781303Y-90009599D01*
X118810301Y-89985801D01*
X118905274Y-89870076D01*
X118975846Y-89738047D01*
X119019303Y-89594785D01*
X119030300Y-89483132D01*
X119030300Y-89483123D01*
X119031384Y-89472117D01*
X119203345Y-89300156D01*
X119272126Y-89368937D01*
X119272126Y-89368937D01*
G37*
X119272126Y-89368937D02*
X119441644Y-89482205D01*
X119630002Y-89560226D01*
X119829961Y-89600000D01*
X120033839Y-89600000D01*
X120233798Y-89560226D01*
X120422156Y-89482205D01*
X120591674Y-89368937D01*
X120635611Y-89325000D01*
X126566474Y-89325000D01*
X126553754Y-89351913D01*
X126513096Y-89485961D01*
X126635085Y-89708000D01*
X127778000Y-89708000D01*
X127778000Y-89688000D01*
X128032000Y-89688000D01*
X128032000Y-89708000D01*
X129174915Y-89708000D01*
X129296904Y-89485961D01*
X129256246Y-89351913D01*
X129243526Y-89325000D01*
X134180136Y-89325000D01*
X134110764Y-89553691D01*
X134083057Y-89835000D01*
X134110764Y-90116309D01*
X134136242Y-90200300D01*
X129291972Y-90200300D01*
X129296904Y-90184039D01*
X129174915Y-89962000D01*
X128032000Y-89962000D01*
X128032000Y-89982000D01*
X127778000Y-89982000D01*
X127778000Y-89962000D01*
X126635085Y-89962000D01*
X126513096Y-90184039D01*
X126518028Y-90200300D01*
X121302322Y-90200300D01*
X121264999Y-90196624D01*
X121227676Y-90200300D01*
X121227667Y-90200300D01*
X121116014Y-90211297D01*
X120972753Y-90254754D01*
X120840724Y-90325326D01*
X120724999Y-90420299D01*
X120701201Y-90449297D01*
X118187371Y-92963128D01*
X118164608Y-92935392D01*
X117946101Y-92756068D01*
X117813142Y-92685000D01*
X117946101Y-92613932D01*
X118164608Y-92434608D01*
X118343932Y-92216101D01*
X118477182Y-91966808D01*
X118559236Y-91696309D01*
X118586943Y-91415000D01*
X118559236Y-91133691D01*
X118477182Y-90863192D01*
X118343932Y-90613899D01*
X118268688Y-90522214D01*
X118781303Y-90009599D01*
X118810301Y-89985801D01*
X118905274Y-89870076D01*
X118975846Y-89738047D01*
X119019303Y-89594785D01*
X119030300Y-89483132D01*
X119030300Y-89483123D01*
X119031384Y-89472117D01*
X119203345Y-89300156D01*
X119272126Y-89368937D01*
G36*
X153787000Y-68833000D02*
G01*
X153807000Y-68833000D01*
X153807000Y-69087000D01*
X153787000Y-69087000D01*
X153787000Y-69107000D01*
X153533000Y-69107000D01*
X153533000Y-69087000D01*
X153513000Y-69087000D01*
X153513000Y-68833000D01*
X153533000Y-68833000D01*
X153533000Y-68813000D01*
X153787000Y-68813000D01*
X153787000Y-68833000D01*
X153787000Y-68833000D01*
G37*
X153787000Y-68833000D02*
X153807000Y-68833000D01*
X153807000Y-69087000D01*
X153787000Y-69087000D01*
X153787000Y-69107000D01*
X153533000Y-69107000D01*
X153533000Y-69087000D01*
X153513000Y-69087000D01*
X153513000Y-68833000D01*
X153533000Y-68833000D01*
X153533000Y-68813000D01*
X153787000Y-68813000D01*
X153787000Y-68833000D01*
M02*
