M48
; DRILL file {KiCad (5.1.4)-1} date 2020/09/22 12:23:02
; FORMAT={-:-/ absolute / metric / decimal}
; #@! TF.CreationDate,2020-09-22T12:23:02+09:00
; #@! TF.GenerationSoftware,Kicad,Pcbnew,(5.1.4)-1
FMAT,2
METRIC
T1C0.400
T2C0.700
T3C0.800
T4C1.000
T5C3.200
%
G90
G05
T1
X106.0Y-109.0
X108.5Y-120.5
X119.216Y-100.487
X119.932Y-88.565
X125.139Y-116.535
X128.833Y-110.226
X137.938Y-91.264
T2
X136.405Y-106.715
X144.025Y-106.715
T3
X148.905Y-82.215
X148.905Y-84.755
X148.905Y-87.295
X148.905Y-89.835
X148.905Y-92.375
X148.905Y-94.915
X148.905Y-97.455
X148.905Y-99.995
X148.905Y-102.535
X148.905Y-105.075
X148.905Y-107.615
X148.905Y-110.155
X148.905Y-112.695
X148.905Y-115.235
X164.145Y-82.215
X164.145Y-84.755
X164.145Y-87.295
X164.145Y-89.835
X164.145Y-92.375
X164.145Y-94.915
X164.145Y-97.455
X164.145Y-99.995
X164.145Y-102.535
X164.145Y-105.075
X164.145Y-107.615
X164.145Y-110.155
X164.145Y-112.695
X164.145Y-115.235
X137.905Y-113.215
X142.785Y-113.215
X101.905Y-78.715
X101.905Y-81.255
X101.905Y-83.795
X101.905Y-86.335
X101.905Y-88.875
X101.905Y-91.415
X101.905Y-93.955
X101.905Y-96.495
X101.905Y-99.035
X101.905Y-101.575
X101.905Y-104.115
X101.905Y-106.655
X101.905Y-109.195
X101.905Y-111.735
X101.905Y-114.275
X101.905Y-116.815
X101.905Y-119.355
X101.905Y-121.895
X101.905Y-124.435
X101.905Y-126.975
X117.145Y-78.715
X117.145Y-81.255
X117.145Y-83.795
X117.145Y-86.335
X117.145Y-88.875
X117.145Y-91.415
X117.145Y-93.955
X117.145Y-96.495
X117.145Y-99.035
X117.145Y-101.575
X117.145Y-104.115
X117.145Y-106.655
X117.145Y-109.195
X117.145Y-111.735
X117.145Y-114.275
X117.145Y-116.815
X117.145Y-119.355
X117.145Y-121.895
X117.145Y-124.435
X117.145Y-126.975
X127.905Y-82.215
X127.905Y-84.755
X127.905Y-87.295
X127.905Y-89.835
X127.905Y-92.375
X127.905Y-94.915
X127.905Y-97.455
X127.905Y-99.995
X135.525Y-82.215
X135.525Y-84.755
X135.525Y-87.295
X135.525Y-89.835
X135.525Y-92.375
X135.525Y-94.915
X135.525Y-97.455
X135.525Y-99.995
X135.405Y-118.215
X137.905Y-118.215
X133.405Y-79.215
X135.905Y-79.215
X167.405Y-112.715
X167.405Y-115.215
X101.405Y-130.215
X103.905Y-130.215
T4
X86.5Y-76.0
X86.5Y-78.54
X86.5Y-81.08
X86.5Y-83.62
X86.5Y-86.16
X86.5Y-88.7
X86.5Y-91.24
X89.04Y-76.0
X89.04Y-78.54
X89.04Y-81.08
X89.04Y-83.62
X89.04Y-86.16
X89.04Y-88.7
X89.04Y-91.24
X105.4Y-68.96
X105.4Y-71.5
X107.94Y-68.96
X107.94Y-71.5
X110.48Y-68.96
X110.48Y-71.5
X113.02Y-68.96
X113.02Y-71.5
X115.56Y-68.96
X115.56Y-71.5
X118.1Y-68.96
X118.1Y-71.5
X120.64Y-68.96
X120.64Y-71.5
X123.18Y-68.96
X123.18Y-71.5
X125.72Y-68.96
X125.72Y-71.5
X128.26Y-68.96
X128.26Y-71.5
X130.8Y-68.96
X130.8Y-71.5
X133.34Y-68.96
X133.34Y-71.5
X135.88Y-68.96
X135.88Y-71.5
X138.42Y-68.96
X138.42Y-71.5
X140.96Y-68.96
X140.96Y-71.5
X143.5Y-68.96
X143.5Y-71.5
X146.04Y-68.96
X146.04Y-71.5
X148.58Y-68.96
X148.58Y-71.5
X151.12Y-68.96
X151.12Y-71.5
X153.66Y-68.96
X153.66Y-71.5
X86.5Y-105.0
X86.5Y-107.54
X86.5Y-110.08
X86.5Y-112.62
X86.5Y-115.16
X86.5Y-117.7
X86.5Y-120.24
X89.04Y-105.0
X89.04Y-107.54
X89.04Y-110.08
X89.04Y-112.62
X89.04Y-115.16
X89.04Y-117.7
X89.04Y-120.24
X148.705Y-126.215
X151.245Y-126.215
X153.785Y-126.215
X156.325Y-126.215
X158.865Y-126.215
X161.405Y-126.215
T5
X174.5Y-130.5
X174.5Y-64.5
X85.5Y-130.5
X85.5Y-64.5
T0
M30
